<svg width="148" height="40" viewBox="0 0 148 40" fill="none" xmlns="http://www.w3.org/2000/svg">
<g clip-path="url(#clip0_42_5013)">
<path d="M55.358 20.0998C53.3234 20.0998 51.6383 19.449 50.3028 18.1349C48.9921 16.8207 48.3431 15.1562 48.3431 13.1286C48.3431 11.1011 49.0046 9.43651 50.3277 8.13488C51.6633 6.83325 53.3734 6.16992 55.4579 6.16992C56.8309 6.16992 58.0666 6.49533 59.165 7.13363C60.2635 7.78444 61.0873 8.67305 61.624 9.81198L59.0277 11.2137C58.179 9.81197 57.0056 9.09858 55.5078 9.09858C54.3594 9.09858 53.4108 9.48657 52.6494 10.25C51.9005 11.001 51.526 11.9521 51.526 13.1161C51.526 14.2801 51.9005 15.2187 52.6244 15.9822C53.3609 16.7456 54.2845 17.1336 55.4079 17.1336C56.1444 17.1336 56.8434 16.9459 57.4924 16.5579C58.154 16.1699 58.6408 15.6693 58.9653 15.056L61.5616 16.5704C60.9749 17.6468 60.1262 18.4978 59.0277 19.1361C57.9293 19.7619 56.7061 20.0748 55.3455 20.0748L55.358 20.0998Z" fill="#30303E"/>
<path d="M67.0163 1.17627V19.8121H63.8333V1.17627H67.0163Z" fill="#30303E"/>
<path d="M69.65 13.1414C69.65 11.1765 70.3115 9.53694 71.6346 8.19776C72.9827 6.84608 74.6928 6.15771 76.7398 6.15771C78.7869 6.15771 80.5094 6.83356 81.82 8.19776C83.1556 9.53694 83.8296 11.189 83.8296 13.1414C83.8296 15.0939 83.1556 16.8085 81.82 18.1477C80.4969 19.4869 78.7994 20.1502 76.7398 20.1502C74.6803 20.1502 72.9702 19.4744 71.6346 18.1477C70.3115 16.8085 69.65 15.1439 69.65 13.1414ZM80.6217 13.1414C80.6217 12.015 80.2473 11.0638 79.4984 10.3004C78.7369 9.52442 77.8133 9.12392 76.7398 9.12392C75.6664 9.12392 74.7427 9.51191 73.9813 10.3004C73.2324 11.0638 72.8579 12.015 72.8579 13.1414C72.8579 14.2679 73.2324 15.2441 73.9813 16.0075C74.7427 16.796 75.6664 17.184 76.7398 17.184C77.8133 17.184 78.7369 16.796 79.4984 16.0075C80.2473 15.2441 80.6217 14.2804 80.6217 13.1414Z" fill="#30303E"/>
<path d="M92.1926 20.1251C90.3328 20.1251 88.8724 19.612 87.8114 18.5732C86.7504 17.5344 86.2137 16.0951 86.2137 14.2428V6.49561H89.4216V14.2428C89.4216 15.1439 89.6712 15.8573 90.1705 16.3955C90.6698 16.9337 91.3439 17.209 92.2051 17.209C93.0664 17.209 93.7778 16.9462 94.2771 16.3955C94.7764 15.8573 95.0261 15.1314 95.0261 14.2428V6.49561H98.2339V14.2428C98.2339 16.0951 97.6972 17.5344 96.6362 18.5732C95.5628 19.612 94.1024 20.1251 92.2176 20.1251H92.1926Z" fill="#30303E"/>
<path d="M111.378 8.18503V1.17627H114.561V19.8121H111.452V18.0724C110.342 19.4491 108.931 20.125 107.221 20.125C105.311 20.125 103.739 19.4616 102.503 18.135C101.242 16.7833 100.618 15.1062 100.618 13.1287C100.618 11.1512 101.242 9.53672 102.503 8.18503C103.776 6.84586 105.336 6.17001 107.196 6.17001C108.894 6.17001 110.292 6.84586 111.378 8.18503ZM107.658 17.2088C108.819 17.2088 109.755 16.8208 110.466 16.0323C111.19 15.2313 111.54 14.2676 111.54 13.1412C111.54 12.0148 111.178 11.0636 110.441 10.2751C109.742 9.48666 108.819 9.09867 107.658 9.09867C106.497 9.09867 105.573 9.48666 104.874 10.2751C104.15 11.0761 103.801 12.0273 103.801 13.1412C103.801 14.2551 104.163 15.2313 104.874 16.0323C105.573 16.8208 106.497 17.2088 107.658 17.2088Z" fill="#30303E"/>
<path d="M123.373 6.94603H124.421V8.68571H123.373V10.9135H121.413V8.68571H117.044L116.583 7.40911L121.763 1.21387H123.373V6.94603ZM121.413 4.05492L118.967 6.94603H121.413V4.05492Z" fill="#30303E"/>
<path d="M54.1098 36.5453C51.7257 36.5453 49.6412 35.8069 47.8313 34.3425L49.8285 31.0384C51.3762 32.1022 52.7867 32.6279 54.0599 32.6279C54.8712 32.6279 55.2831 32.4151 55.2831 31.9896C55.2831 31.7893 55.0834 31.6141 54.6715 31.4764C54.6341 31.4639 54.1223 31.3012 53.1237 30.9883C52.1252 30.6754 51.5135 30.4627 51.3013 30.35C49.5289 29.5991 48.6427 28.335 48.6427 26.5578C48.6427 25.2311 49.1794 24.1673 50.2529 23.3413C51.3513 22.5278 52.7742 22.1147 54.5342 22.1147C56.4689 22.1147 58.2289 22.678 59.7892 23.8044L57.8295 27.0209C56.6187 26.295 55.5078 25.9445 54.4843 25.9445C53.7728 25.9445 53.4108 26.1323 53.4108 26.5077C53.4108 26.8832 53.8352 27.146 54.684 27.3463C55.8698 27.6091 56.9308 27.9721 57.8669 28.4477C58.6783 28.8732 59.2649 29.3613 59.6269 29.912C59.9889 30.4627 60.1636 31.1385 60.1636 31.927C60.1636 33.3162 59.6269 34.4301 58.5534 35.2812C57.4925 36.1323 56.0196 36.5578 54.1348 36.5578L54.1098 36.5453Z" fill="#30303E"/>
<path d="M68.6514 36.4953C66.542 36.4953 64.9068 35.9446 63.721 34.8307C62.5352 33.7168 61.9485 32.1398 61.9485 30.0998V22.5278H66.7666V30.1749C66.7666 30.7506 66.9414 31.2137 67.2784 31.5766C67.6154 31.9396 68.0772 32.1148 68.6514 32.1148C69.2256 32.1148 69.6999 31.9396 70.0494 31.5892C70.3864 31.2387 70.5612 30.7756 70.5612 30.1874V22.5403H75.3793V30.1123C75.3793 32.1524 74.7926 33.7293 73.6068 34.8432C72.421 35.9571 70.7734 36.5078 68.6514 36.5078V36.4953Z" fill="#30303E"/>
<path d="M84.4662 36.4456C82.3193 36.4456 80.5718 35.7822 79.2362 34.4556C77.9007 33.1164 77.2266 31.4018 77.2266 29.3117C77.2266 27.2215 77.9007 25.5194 79.2362 24.1928C80.5718 22.8536 82.3318 22.1777 84.5162 22.1777C85.989 22.1777 87.2872 22.5282 88.448 23.2165C89.6089 23.9049 90.4826 24.9187 91.0693 26.2453L87.2497 28.2353C86.6132 27.1715 85.7394 26.6458 84.6285 26.6458C83.8421 26.6458 83.2055 26.8961 82.7063 27.4093C82.207 27.9224 81.9573 28.5482 81.9573 29.3242C81.9573 30.1001 82.207 30.7635 82.7063 31.2766C83.2055 31.7898 83.8421 32.0526 84.6035 32.0526C85.1777 32.0526 85.6895 31.9024 86.1638 31.6145C86.6381 31.3267 86.9751 30.9387 87.1873 30.4631L91.0193 32.7409C90.4202 33.9174 89.534 34.8311 88.3856 35.4819C87.2248 36.1327 85.9142 36.4581 84.4538 36.4581L84.4662 36.4456Z" fill="#30303E"/>
<path d="M99.3324 36.4456C97.1855 36.4456 95.438 35.7822 94.1024 34.4556C92.7668 33.1164 92.0928 31.4018 92.0928 29.3117C92.0928 27.2215 92.7668 25.5194 94.1024 24.1928C95.438 22.8536 97.1979 22.1777 99.3823 22.1777C100.855 22.1777 102.166 22.5282 103.314 23.2165C104.463 23.9049 105.349 24.9187 105.935 26.2453L102.116 28.2353C101.479 27.1715 100.606 26.6458 99.4946 26.6458C98.7083 26.6458 98.0717 26.8961 97.5724 27.4093C97.0731 27.9224 96.8235 28.5482 96.8235 29.3242C96.8235 30.1001 97.0731 30.7635 97.5724 31.2766C98.0717 31.7898 98.6958 32.0526 99.4697 32.0526C100.044 32.0526 100.568 31.9024 101.03 31.6145C101.492 31.3267 101.841 30.9387 102.053 30.4631L105.885 32.7409C105.286 33.9174 104.4 34.8311 103.252 35.4819C102.091 36.1327 100.78 36.4581 99.3199 36.4581L99.3324 36.4456Z" fill="#30303E"/>
<path d="M121.363 28.9612C121.363 29.5369 121.313 30.1627 121.213 30.8511H111.802C112.314 31.99 113.287 32.5657 114.76 32.5657C116.233 32.5657 117.506 32.1777 118.692 31.3892L120.552 34.5807C118.804 35.8198 116.795 36.4456 114.511 36.4456C112.102 36.4456 110.229 35.7697 108.919 34.4055C107.596 33.0288 106.934 31.3392 106.934 29.3367C106.934 27.3342 107.608 25.5695 108.969 24.2178C110.354 22.8661 112.127 22.1777 114.298 22.1777C116.333 22.1777 118.018 22.791 119.354 24.0175C120.689 25.2065 121.363 26.8586 121.363 28.9737V28.9612ZM114.298 25.9449C113.025 25.9449 112.176 26.5081 111.74 27.6346H116.795C116.383 26.5081 115.559 25.9449 114.298 25.9449Z" fill="#30303E"/>
<path d="M128.615 36.5453C126.231 36.5453 124.147 35.8069 122.337 34.3425L124.334 31.0384C125.882 32.1022 127.292 32.6279 128.565 32.6279C129.377 32.6279 129.789 32.4151 129.789 31.9896C129.789 31.7893 129.589 31.6141 129.177 31.4764C129.14 31.4639 128.628 31.3012 127.629 30.9883C126.631 30.6754 126.019 30.4627 125.807 30.35C124.034 29.5991 123.148 28.335 123.148 26.5578C123.148 25.2311 123.685 24.1673 124.758 23.3413C125.857 22.5278 127.28 22.1147 129.04 22.1147C130.974 22.1147 132.734 22.678 134.295 23.8044L132.335 27.0209C131.124 26.295 130.013 25.9445 128.99 25.9445C128.278 25.9445 127.916 26.1323 127.916 26.5077C127.916 26.8832 128.341 27.146 129.19 27.3463C130.375 27.6091 131.436 27.9721 132.372 28.4477C133.184 28.8732 133.77 29.3613 134.132 29.912C134.494 30.4627 134.669 31.1385 134.669 31.927C134.669 33.3162 134.132 34.4301 133.059 35.2812C131.998 36.1323 130.525 36.5578 128.64 36.5578L128.615 36.5453Z" fill="#30303E"/>
<path d="M141.971 36.5453C139.587 36.5453 137.503 35.8069 135.693 34.3425L137.69 31.0384C139.238 32.1022 140.648 32.6279 141.921 32.6279C142.733 32.6279 143.144 32.4151 143.144 31.9896C143.144 31.7893 142.945 31.6141 142.533 31.4764C142.495 31.4639 141.984 31.3012 140.985 30.9883C139.987 30.6754 139.375 30.4627 139.163 30.35C137.39 29.5991 136.504 28.335 136.504 26.5578C136.504 25.2311 137.041 24.1673 138.114 23.3413C139.213 22.5278 140.636 22.1147 142.396 22.1147C144.33 22.1147 146.09 22.678 147.651 23.8044L145.691 27.0209C144.48 26.295 143.369 25.9445 142.346 25.9445C141.634 25.9445 141.272 26.1323 141.272 26.5077C141.272 26.8832 141.697 27.146 142.545 27.3463C143.731 27.6091 144.792 27.9721 145.728 28.4477C146.54 28.8732 147.126 29.3613 147.488 29.912C147.85 30.4627 148.025 31.1385 148.025 31.927C148.025 33.3162 147.488 34.4301 146.415 35.2812C145.354 36.1323 143.881 36.5578 141.996 36.5578L141.971 36.5453Z" fill="#30303E"/>
<path d="M30.1817 40.0001H9.72354C4.26887 40.0001 0 34.6809 0 30.2504C0 25.532 3.58236 21.3267 8.30058 20.3004C10.2478 16.0827 14.7039 13.3042 19.6593 13.3042C25.9752 13.3042 31.2052 17.7598 31.9541 23.4919C36.1107 24.1427 39.2686 27.0839 39.2686 31.1765C39.2686 35.7072 35.1121 39.9876 30.1692 39.9876L30.1817 40.0001ZM19.6718 16.3956C15.665 16.3956 12.1201 18.736 10.8469 22.2153C10.6472 22.7535 10.1729 23.1415 9.59872 23.2166C5.94147 23.6797 3.08307 26.771 3.08307 30.2629C3.08307 34.0051 4.95539 36.9337 9.73602 36.9337H30.1817C34.151 36.9337 36.2355 34.4682 36.2355 31.6521C36.2355 28.8361 33.6766 26.4707 30.5312 26.4707C29.6824 26.4707 28.9959 25.7823 28.9959 24.9312C28.9959 20.2254 24.8144 16.3956 19.6718 16.3956Z" fill="#30303E"/>
<path d="M30.1817 40H9.72354C4.36873 40 0 35.2691 0 30.2503V9.74969C0 4.36796 4.35625 0 9.72354 0H19.6593C20.5081 0 21.1946 0.688361 21.1946 1.53942C21.1946 2.39049 20.5081 3.07885 19.6593 3.07885H9.72354C6.05381 3.07885 3.07059 6.07009 3.07059 9.74969V30.2628C3.07059 33.9424 5.74176 36.9337 9.72354 36.9337H30.1817C33.8514 36.9337 36.8346 33.9424 36.8346 30.2628V20C36.8346 19.1489 37.5211 18.4606 38.3699 18.4606C39.2187 18.4606 39.9052 19.1489 39.9052 20V30.2628C39.9052 35.632 35.549 40.0125 30.1817 40.0125V40Z" fill="#30303E"/>
<path d="M39.1813 0.951369C39.0315 0.575899 38.7319 0.275524 38.3574 0.125336C38.1702 0.0502422 37.9705 0.0126953 37.7708 0.0126953H30.5437C29.6949 0.0126953 29.0084 0.701056 29.0084 1.55212C29.0084 2.40318 29.6949 3.09154 30.5437 3.09154H34.0761L29.4577 7.72233C28.8586 8.32308 28.8586 9.2993 29.4577 9.90005C29.7573 10.2004 30.1442 10.3506 30.5437 10.3506C30.9431 10.3506 31.33 10.2004 31.6296 9.90005L36.248 5.26927V8.81119C36.248 9.66226 36.9345 10.3506 37.7833 10.3506C38.632 10.3506 39.3186 9.66226 39.3186 8.81119V1.5396C39.3186 1.33935 39.2811 1.1391 39.2062 0.951369H39.1813Z" fill="#499EF0"/>
</g>
<defs>
<clipPath id="clip0_42_5013">
<rect width="148" height="40" fill="white"/>
</clipPath>
</defs>
</svg>
