<svg width="183" height="50" viewBox="0 0 183 50" fill="none" xmlns="http://www.w3.org/2000/svg">
<g clip-path="url(#clip0_42_4191)">
<path d="M68.4494 25.1252C65.9337 25.1252 63.8501 24.3116 62.1987 22.669C60.5781 21.0263 59.7756 18.9456 59.7756 16.4111C59.7756 13.8767 60.5936 11.796 62.2296 10.169C63.881 8.54193 65.9954 7.71277 68.5729 7.71277C70.2706 7.71277 71.7986 8.11953 73.1568 8.9174C74.515 9.73092 75.5336 10.8417 76.1973 12.2653L72.987 14.0175C71.9375 12.2653 70.4867 11.3736 68.6346 11.3736C67.2147 11.3736 66.0417 11.8586 65.1003 12.8129C64.1742 13.7516 63.7112 14.9406 63.7112 16.3955C63.7112 17.8504 64.1742 19.0238 65.0694 19.9781C65.98 20.9324 67.1221 21.4174 68.5112 21.4174C69.4218 21.4174 70.2861 21.1827 71.0886 20.6977C71.9066 20.2128 72.5086 19.587 72.9098 18.8204L76.1201 20.7134C75.3947 22.0588 74.3452 23.1227 72.987 23.9205C71.6288 24.7028 70.1163 25.0939 68.434 25.0939L68.4494 25.1252Z" fill="#F5FCFF"/>
<path d="M82.8647 1.47058V24.7653H78.9291V1.47058H82.8647Z" fill="#F5FCFF"/>
<path d="M86.1213 16.4268C86.1213 13.9706 86.9393 11.9212 88.5753 10.2472C90.2421 8.55759 92.3566 7.69714 94.8877 7.69714C97.4189 7.69714 99.5488 8.54195 101.169 10.2472C102.821 11.9212 103.654 13.9863 103.654 16.4268C103.654 18.8674 102.821 21.0107 101.169 22.6846C99.5334 24.3586 97.4343 25.1878 94.8877 25.1878C92.3411 25.1878 90.2267 24.343 88.5753 22.6846C86.9393 21.0107 86.1213 18.9299 86.1213 16.4268ZM99.6877 16.4268C99.6877 15.0188 99.2247 13.8298 98.2986 12.8755C97.3572 11.9055 96.2151 11.4049 94.8877 11.4049C93.5604 11.4049 92.4183 11.8899 91.4769 12.8755C90.5508 13.8298 90.0878 15.0188 90.0878 16.4268C90.0878 17.8348 90.5508 19.0551 91.4769 20.0094C92.4183 20.995 93.5604 21.48 94.8877 21.48C96.2151 21.48 97.3572 20.995 98.2986 20.0094C99.2247 19.0551 99.6877 17.8505 99.6877 16.4268Z" fill="#F5FCFF"/>
<path d="M113.995 25.1564C111.695 25.1564 109.89 24.515 108.578 23.2165C107.266 21.918 106.602 20.1189 106.602 17.8035V8.11951H110.569V17.8035C110.569 18.9299 110.877 19.8216 111.495 20.4944C112.112 21.1671 112.945 21.5112 114.01 21.5112C115.075 21.5112 115.955 21.1827 116.572 20.4944C117.19 19.8216 117.498 18.9143 117.498 17.8035V8.11951H121.465V17.8035C121.465 20.1189 120.801 21.918 119.489 23.2165C118.162 24.515 116.356 25.1564 114.026 25.1564H113.995Z" fill="#F5FCFF"/>
<path d="M137.717 10.2315V1.47058H141.653V24.7653H137.809V22.5907C136.436 24.3116 134.692 25.1564 132.577 25.1564C130.216 25.1564 128.271 24.3273 126.743 22.669C125.185 20.9793 124.413 18.883 124.413 16.4111C124.413 13.9393 125.185 11.9211 126.743 10.2315C128.318 8.55756 130.247 7.71276 132.547 7.71276C134.646 7.71276 136.374 8.55756 137.717 10.2315ZM133.118 21.5113C134.553 21.5113 135.71 21.0263 136.59 20.0407C137.485 19.0394 137.918 17.8348 137.918 16.4268C137.918 15.0188 137.47 13.8298 136.559 12.8442C135.695 11.8586 134.553 11.3736 133.118 11.3736C131.682 11.3736 130.54 11.8586 129.676 12.8442C128.781 13.8454 128.348 15.0344 128.348 16.4268C128.348 17.8191 128.796 19.0394 129.676 20.0407C130.54 21.0263 131.682 21.5113 133.118 21.5113Z" fill="#F5FCFF"/>
<path d="M152.549 8.68272H153.845V10.8573H152.549V13.642H150.126V10.8573H144.724L144.153 9.26157L150.558 1.51752H152.549V8.68272ZM150.126 5.06883L147.101 8.68272H150.126V5.06883Z" fill="#F5FCFF"/>
<path d="M66.906 45.6821C63.9582 45.6821 61.3807 44.7591 59.1428 42.9286L61.6122 38.7985C63.526 40.1283 65.2701 40.7853 66.8443 40.7853C67.8475 40.7853 68.3568 40.5194 68.3568 39.9875C68.3568 39.7372 68.1099 39.5181 67.6006 39.346C67.5543 39.3304 66.9215 39.127 65.6868 38.7359C64.4521 38.3448 63.6958 38.0788 63.4334 37.938C61.2418 36.9994 60.146 35.4193 60.146 33.1977C60.146 31.5394 60.8097 30.2096 62.137 29.1771C63.4952 28.1602 65.2546 27.6439 67.4308 27.6439C69.8231 27.6439 71.9992 28.3479 73.9285 29.7559L71.5054 33.7766C70.0083 32.8692 68.6347 32.4312 67.3691 32.4312C66.4893 32.4312 66.0418 32.6658 66.0418 33.1352C66.0418 33.6045 66.5665 33.933 67.616 34.1833C69.0822 34.5119 70.3941 34.9656 71.5517 35.5601C72.5549 36.092 73.2803 36.7021 73.7278 37.3905C74.1754 38.0788 74.3915 38.9236 74.3915 39.9093C74.3915 41.6458 73.7278 43.0382 72.4005 44.102C71.0886 45.1658 69.2674 45.6977 66.9369 45.6977L66.906 45.6821Z" fill="#F5FCFF"/>
<path d="M84.8866 45.6195C82.2783 45.6195 80.2564 44.9312 78.7902 43.5388C77.324 42.1464 76.5986 40.1752 76.5986 37.6252V28.1602H82.5561V37.719C82.5561 38.4387 82.7721 39.0175 83.1889 39.4712C83.6056 39.9249 84.1766 40.1439 84.8866 40.1439C85.5965 40.1439 86.183 39.9249 86.6152 39.4869C87.0319 39.0488 87.248 38.47 87.248 37.7347V28.1759H93.2055V37.6408C93.2055 40.1909 92.4801 42.1621 91.0139 43.5545C89.5476 44.9468 87.5104 45.6352 84.8866 45.6352V45.6195Z" fill="#F5FCFF"/>
<path d="M104.441 45.557C101.787 45.557 99.626 44.7278 97.9745 43.0695C96.3231 41.3955 95.4897 39.2522 95.4897 36.6396C95.4897 34.0269 96.3231 31.8993 97.9745 30.2409C99.626 28.567 101.802 27.7222 104.503 27.7222C106.324 27.7222 107.929 28.1602 109.365 29.0207C110.8 29.8811 111.881 31.1483 112.606 32.8066L107.883 35.2941C107.096 33.9643 106.016 33.3073 104.642 33.3073C103.67 33.3073 102.883 33.6202 102.265 34.2616C101.648 34.903 101.339 35.6852 101.339 36.6552C101.339 37.6252 101.648 38.4543 102.265 39.0958C102.883 39.7372 103.67 40.0657 104.611 40.0657C105.321 40.0657 105.954 39.878 106.54 39.5182C107.127 39.1583 107.544 38.6734 107.806 38.0789L112.544 40.9262C111.803 42.3968 110.708 43.5388 109.288 44.3523C107.852 45.1658 106.232 45.5726 104.426 45.5726L104.441 45.557Z" fill="#F5FCFF"/>
<path d="M122.823 45.557C120.169 45.557 118.008 44.7278 116.356 43.0695C114.705 41.3955 113.871 39.2522 113.871 36.6396C113.871 34.0269 114.705 31.8993 116.356 30.2409C118.008 28.567 120.184 27.7222 122.885 27.7222C124.706 27.7222 126.327 28.1602 127.747 29.0207C129.166 29.8811 130.262 31.1483 130.988 32.8066L126.265 35.2941C125.478 33.9643 124.397 33.3073 123.024 33.3073C122.051 33.3073 121.264 33.6202 120.647 34.2616C120.03 34.903 119.721 35.6852 119.721 36.6552C119.721 37.6252 120.03 38.4543 120.647 39.0958C121.264 39.7372 122.036 40.0657 122.993 40.0657C123.703 40.0657 124.351 39.878 124.922 39.5182C125.493 39.1583 125.925 38.6734 126.188 38.0789L130.926 40.9262C130.185 42.3968 129.089 43.5388 127.669 44.3523C126.234 45.1658 124.613 45.5726 122.808 45.5726L122.823 45.557Z" fill="#F5FCFF"/>
<path d="M150.064 36.2015C150.064 36.9212 150.002 37.7034 149.879 38.5638H138.242C138.874 39.9875 140.078 40.7071 141.899 40.7071C143.721 40.7071 145.295 40.2222 146.761 39.2366L149.061 43.2259C146.9 44.7747 144.415 45.557 141.591 45.557C138.612 45.557 136.297 44.7122 134.676 43.0069C133.04 41.286 132.222 39.174 132.222 36.6709C132.222 34.1677 133.056 31.9618 134.738 30.2722C136.451 28.5826 138.643 27.7222 141.328 27.7222C143.844 27.7222 145.928 28.4888 147.579 30.0219C149.231 31.5082 150.064 33.5732 150.064 36.2172V36.2015ZM141.328 32.4312C139.754 32.4312 138.705 33.1352 138.164 34.5432H144.415C143.906 33.1352 142.887 32.4312 141.328 32.4312Z" fill="#F5FCFF"/>
<path d="M159.031 45.6821C156.083 45.6821 153.506 44.7591 151.268 42.9286L153.737 38.7985C155.651 40.1283 157.395 40.7853 158.969 40.7853C159.973 40.7853 160.482 40.5194 160.482 39.9875C160.482 39.7372 160.235 39.5181 159.726 39.346C159.679 39.3304 159.047 39.127 157.812 38.7359C156.577 38.3448 155.821 38.0788 155.558 37.938C153.367 36.9994 152.271 35.4193 152.271 33.1977C152.271 31.5394 152.935 30.2096 154.262 29.1771C155.62 28.1602 157.38 27.6439 159.556 27.6439C161.948 27.6439 164.124 28.3479 166.054 29.7559L163.63 33.7766C162.133 32.8692 160.76 32.4312 159.494 32.4312C158.614 32.4312 158.167 32.6658 158.167 33.1352C158.167 33.6045 158.692 33.933 159.741 34.1833C161.207 34.5119 162.519 34.9656 163.677 35.5601C164.68 36.092 165.405 36.7021 165.853 37.3905C166.3 38.0788 166.517 38.9236 166.517 39.9093C166.517 41.6458 165.853 43.0382 164.526 44.102C163.214 45.1658 161.393 45.6977 159.062 45.6977L159.031 45.6821Z" fill="#F5FCFF"/>
<path d="M175.545 45.6821C172.598 45.6821 170.02 44.7591 167.782 42.9286L170.252 38.7985C172.165 40.1283 173.909 40.7853 175.484 40.7853C176.487 40.7853 176.996 40.5194 176.996 39.9875C176.996 39.7372 176.749 39.5181 176.24 39.346C176.194 39.3304 175.561 39.127 174.326 38.7359C173.091 38.3448 172.335 38.0788 172.073 37.938C169.881 36.9994 168.785 35.4193 168.785 33.1977C168.785 31.5394 169.449 30.2096 170.776 29.1771C172.135 28.1602 173.894 27.6439 176.07 27.6439C178.462 27.6439 180.639 28.3479 182.568 29.7559L180.145 33.7766C178.648 32.8692 177.274 32.4312 176.008 32.4312C175.129 32.4312 174.681 32.6658 174.681 33.1352C174.681 33.6045 175.206 33.933 176.255 34.1833C177.722 34.5119 179.033 34.9656 180.191 35.5601C181.194 36.092 181.92 36.7021 182.367 37.3905C182.815 38.0788 183.031 38.9236 183.031 39.9093C183.031 41.6458 182.367 43.0382 181.04 44.102C179.728 45.1658 177.907 45.6977 175.576 45.6977L175.545 45.6821Z" fill="#F5FCFF"/>
<path d="M37.3192 50H12.023C5.2784 50 0 43.3511 0 37.8129C0 31.9149 4.42954 26.6583 10.2636 25.3755C12.6713 20.1033 18.1812 16.6302 24.3084 16.6302C32.118 16.6302 38.5848 22.1997 39.5108 29.3649C44.6503 30.1784 48.5551 33.8548 48.5551 38.9706C48.5551 44.6339 43.4156 49.9844 37.3038 49.9844L37.3192 50ZM24.3239 20.4944C19.3696 20.4944 14.9863 23.4199 13.4121 27.7691C13.1651 28.4418 12.5786 28.9268 11.8687 29.0207C7.34655 29.5995 3.81218 33.4637 3.81218 37.8286C3.81218 42.5063 6.12727 46.1671 12.0385 46.1671H37.3192C42.2272 46.1671 44.8047 43.0851 44.8047 39.5651C44.8047 36.0451 41.6407 33.0883 37.7514 33.0883C36.7019 33.0883 35.853 32.2278 35.853 31.164C35.853 25.2816 30.6826 20.4944 24.3239 20.4944Z" fill="#F5FCFF"/>
<path d="M37.3192 50H12.023C5.40187 50 0 44.0864 0 37.8129V12.1871C0 5.45995 5.38644 0 12.023 0H24.3084C25.3579 0 26.2068 0.860451 26.2068 1.92428C26.2068 2.98811 25.3579 3.84856 24.3084 3.84856H12.023C7.48545 3.84856 3.79674 7.58761 3.79674 12.1871V37.8285C3.79674 42.428 7.0996 46.1671 12.023 46.1671H37.3192C41.8568 46.1671 45.5455 42.428 45.5455 37.8285V25C45.5455 23.9362 46.3944 23.0757 47.4439 23.0757C48.4934 23.0757 49.3422 23.9362 49.3422 25V37.8285C49.3422 44.5401 43.9558 50.0156 37.3192 50.0156V50Z" fill="#F5FCFF"/>
<path d="M48.4471 1.18897C48.2619 0.71963 47.8915 0.344161 47.4284 0.156426C47.1969 0.0625587 46.95 0.015625 46.7031 0.015625H37.7668C36.7173 0.015625 35.8684 0.876076 35.8684 1.93991C35.8684 3.00374 36.7173 3.86419 37.7668 3.86419H42.1346L36.4241 9.65267C35.6832 10.4036 35.6832 11.6239 36.4241 12.3748C36.7945 12.7503 37.2729 12.938 37.7668 12.938C38.2607 12.938 38.7391 12.7503 39.1096 12.3748L44.8201 6.58634V11.0137C44.8201 12.0776 45.669 12.938 46.7185 12.938C47.768 12.938 48.6169 12.0776 48.6169 11.0137V1.92426C48.6169 1.67395 48.5706 1.42364 48.478 1.18897H48.4471Z" fill="#499EF0"/>
</g>
<defs>
<clipPath id="clip0_42_4191">
<rect width="183" height="50" fill="white"/>
</clipPath>
</defs>
</svg>
