<svg width="28" height="28" viewBox="0 0 28 28" fill="none" xmlns="http://www.w3.org/2000/svg">
<path opacity="0.3" d="M21.9333 24.4998L5.59999 21.6998C5.01666 21.5831 4.66666 20.9998 4.66666 20.5331V7.46647C4.66666 6.88314 5.01666 6.41647 5.59999 6.2998L21.9333 3.4998C22.6333 3.38314 23.3333 3.96647 23.3333 4.66647V23.3331C23.3333 24.0331 22.6333 24.6165 21.9333 24.4998Z" fill="white"/>
<path d="M4.66666 12.8335H23.3333V15.1668H4.66666V12.8335Z" fill="white"/>
<path d="M11.6667 4.6665H14V23.0998H11.6667V4.6665Z" fill="white"/>
<path d="M22.1667 25.6669C22.05 25.6669 21.9333 25.6669 21.8167 25.6669L5.48333 22.8669C4.31667 22.6336 3.5 21.7002 3.5 20.5336V7.4669C3.5 6.30024 4.31667 5.3669 5.48333 5.13357L21.8167 2.33357C22.5167 2.2169 23.2167 2.45024 23.6833 2.80024C24.15 3.38357 24.5 3.9669 24.5 4.6669V23.3336C24.5 24.0336 24.15 24.6169 23.6833 25.0836C23.2167 25.4336 22.75 25.6669 22.1667 25.6669ZM22.1667 23.3336V4.6669L5.83333 7.4669V20.4169L22.1667 23.3336Z" fill="white"/>
</svg>
