<svg width="50" height="50" viewBox="0 0 50 50" fill="none" xmlns="http://www.w3.org/2000/svg">
<path opacity="0.3" d="M9.64336 31.3582C10.5329 31.3582 11.46 31.5519 12.3538 31.854V39.2915H1.91211V35.504C2.49544 33.9019 6.34336 31.3582 9.64336 31.3582ZM47.9163 35.7957V39.5832H37.4746V32.1457C38.3684 31.8436 39.2954 31.6498 40.185 31.6498C43.485 31.6498 47.3329 34.1936 47.9163 35.7957ZM36.8788 38.7894H13.1204V34.5728C14.0184 32.7915 19.9288 29.9603 24.9996 29.9603C30.0704 29.9603 35.9809 32.7915 36.8788 34.5728V38.7894V38.7894ZM24.9996 10.4165C23.6183 10.4165 22.2935 10.9652 21.3168 11.942C20.34 12.9187 19.7913 14.2435 19.7913 15.6248C19.7913 17.0062 20.34 18.3309 21.3168 19.3077C22.2935 20.2844 23.6183 20.8332 24.9996 20.8332C26.3809 20.8332 27.7057 20.2844 28.6825 19.3077C29.6592 18.3309 30.2079 17.0062 30.2079 15.6248C30.2079 14.2435 29.6592 12.9187 28.6825 11.942C27.7057 10.9652 26.3809 10.4165 24.9996 10.4165V10.4165ZM40.6246 16.6665C39.7958 16.6665 39.001 16.9957 38.4149 17.5818C37.8289 18.1678 37.4996 18.9627 37.4996 19.7915C37.4996 20.6203 37.8289 21.4152 38.4149 22.0012C39.001 22.5873 39.7958 22.9165 40.6246 22.9165C41.4534 22.9165 42.2483 22.5873 42.8343 22.0012C43.4204 21.4152 43.7496 20.6203 43.7496 19.7915C43.7496 18.9627 43.4204 18.1678 42.8343 17.5818C42.2483 16.9957 41.4534 16.6665 40.6246 16.6665V16.6665ZM9.37461 16.6665C8.54581 16.6665 7.75095 16.9957 7.1649 17.5818C6.57885 18.1678 6.24961 18.9627 6.24961 19.7915C6.24961 20.6203 6.57885 21.4152 7.1649 22.0012C7.75095 22.5873 8.54581 22.9165 9.37461 22.9165C10.2034 22.9165 10.9983 22.5873 11.5843 22.0012C12.1704 21.4152 12.4996 20.6203 12.4996 19.7915C12.4996 18.9627 12.1704 18.1678 11.5843 17.5818C10.9983 16.9957 10.2034 16.6665 9.37461 16.6665V16.6665Z" fill="#499EF0"/>
<path d="M40.6244 14.5835C37.7473 14.5835 35.416 16.9147 35.416 19.7918C35.416 22.6689 37.7473 25.0002 40.6244 25.0002C43.5014 25.0002 45.8327 22.6689 45.8327 19.7918C45.8327 16.9147 43.5014 14.5835 40.6244 14.5835ZM40.6244 21.4106C39.7306 21.4106 39.0056 20.6856 39.0056 19.7918C39.0056 18.8981 39.7306 18.1731 40.6244 18.1731C41.5181 18.1731 42.2431 18.8981 42.2431 19.7918C42.2431 20.6856 41.5181 21.4106 40.6244 21.4106ZM24.9994 8.3335C20.9723 8.3335 17.7077 11.5981 17.7077 15.6252C17.7077 19.6522 20.9723 22.9168 24.9994 22.9168C29.0264 22.9168 32.291 19.6522 32.291 15.6252C32.291 11.5981 29.0264 8.3335 24.9994 8.3335ZM24.9994 18.7502C23.2764 18.7502 21.8744 17.3481 21.8744 15.6252C21.8744 13.9022 23.2764 12.5002 24.9994 12.5002C26.7223 12.5002 28.1244 13.9022 28.1244 15.6252C28.1244 17.3481 26.7223 18.7502 24.9994 18.7502ZM24.9994 27.0835C20.1327 27.0835 10.416 29.5252 10.416 34.3752V41.6668H39.5827V34.3752C39.5827 29.5252 29.866 27.0835 24.9994 27.0835ZM35.416 37.5002H14.5827V34.5147C15.3702 33.2543 20.5535 31.2502 24.9994 31.2502C29.4452 31.2502 34.6285 33.2543 35.416 34.5147V37.5002Z" fill="#499EF0"/>
<path d="M40.625 29.1668C38.2146 29.1668 35.8021 29.9543 34.0229 31.1481C35.8521 31.9793 37.175 32.9877 37.4375 34.0106C38.3125 33.6314 39.4021 33.3335 40.625 33.3335C43.3375 33.3335 45.45 34.7689 45.8333 35.4356V37.5002H40.625H37.5V41.6668H40.625H50V35.2752C50 32.0793 45.2854 29.1668 40.625 29.1668ZM4.16667 19.7918C4.16667 22.6689 6.49792 25.0002 9.375 25.0002C12.2521 25.0002 14.5833 22.6689 14.5833 19.7918C14.5833 16.9147 12.2521 14.5835 9.375 14.5835C6.49792 14.5835 4.16667 16.9147 4.16667 19.7918ZM7.75625 19.7918C7.75625 18.8981 8.48125 18.1731 9.375 18.1731C10.2687 18.1731 10.9937 18.8981 10.9937 19.7918C10.9937 20.6856 10.2687 21.4106 9.375 21.4106C8.48125 21.4106 7.75625 20.6856 7.75625 19.7918ZM9.375 29.1668C11.7854 29.1668 14.1979 29.9543 15.9771 31.1481C14.1479 31.9793 12.825 32.9877 12.5625 34.0106C11.6875 33.6314 10.5979 33.3335 9.375 33.3335C6.6625 33.3335 4.55 34.7689 4.16667 35.4356V37.5002H9.375H12.5V41.6668H9.375H0V35.2752C0 32.0793 4.71458 29.1668 9.375 29.1668Z" fill="#499EF0"/>
</svg>
