<svg width="50" height="50" viewBox="0 0 50 50" fill="none" xmlns="http://www.w3.org/2000/svg">
<path opacity="0.3" d="M41.6667 39.5832H8.33333C7.18333 39.5832 6.25 38.6498 6.25 37.4998V12.4998C6.25 11.3498 7.18333 10.4165 8.33333 10.4165H41.6667C42.8167 10.4165 43.75 11.3498 43.75 12.4998V37.4998C43.75 38.6498 42.8167 39.5832 41.6667 39.5832Z" fill="#499EF0"/>
<path d="M41.666 41.6668H8.33268C6.03477 41.6668 4.16602 39.7981 4.16602 37.5002V12.5002C4.16602 10.2022 6.03477 8.3335 8.33268 8.3335H41.666C43.9639 8.3335 45.8327 10.2022 45.8327 12.5002V37.5002C45.8327 39.7981 43.9639 41.6668 41.666 41.6668ZM8.33268 12.5002V37.5002H41.6681L41.666 12.5002H8.33268Z" fill="#499EF0"/>
<path d="M7.0625 11.7144L25 22.9164L42.6833 11.8769V16.0435L25 27.0831L7.0625 15.881V11.7144Z" fill="#499EF0"/>
</svg>
