<svg width="28" height="28" viewBox="0 0 28 28" fill="none" xmlns="http://www.w3.org/2000/svg">
<g clip-path="url(#clip0_42_4761)">
<path opacity="0.3" d="M18.5 10.5V15.1667H11.5V21H25.5V10.5H18.5Z" fill="white"/>
<path d="M17.3333 3.5H5.66668C4.38334 3.5 3.33334 4.55 3.33334 5.83333V19.8333L6.83334 16.3333H17.3333C18.6167 16.3333 19.6667 15.2833 19.6667 14V5.83333C19.6667 4.55 18.6167 3.5 17.3333 3.5ZM17.3333 14H6.83334H5.90001L5.66668 14.2333V5.83333H17.3333V14Z" fill="white"/>
<path d="M24.3333 9.3335H18.5V11.6668H24.3333V20.0668L24.1 19.8335H23.1667H12.6667V15.1668H10.3333V19.8335C10.3333 21.1168 11.3833 22.1668 12.6667 22.1668H23.1667L26.6667 25.6668V11.6668C26.6667 10.3835 25.6167 9.3335 24.3333 9.3335Z" fill="white"/>
<path opacity="0.3" d="M4.5 4.6665H18.5V15.1665H4.5V4.6665Z" fill="white"/>
</g>
<defs>
<clipPath id="clip0_42_4761">
<rect width="28" height="28" fill="white"/>
</clipPath>
</defs>
</svg>
