<svg width="32" height="32" viewBox="0 0 32 32" fill="none" xmlns="http://www.w3.org/2000/svg">
<path d="M26.6666 9.33325H19.9999C18.5266 9.33325 17.3333 10.5266 17.3333 11.9999V25.3333C17.3333 26.8066 18.5266 27.9999 19.9999 27.9999H26.6666C28.1399 27.9999 29.3333 26.8066 29.3333 25.3333V11.9999C29.3333 10.5266 28.1399 9.33325 26.6666 9.33325ZM26.6666 25.3333H19.9999V11.9999H26.6666V25.3333Z" fill="#4A9EF0"/>
<path d="M14.6667 21.3333H6.66675V6.66667H29.3334C29.3334 5.19333 28.1401 4 26.6667 4H5.33341C3.86008 4 2.66675 5.19333 2.66675 6.66667V21.3333C2.66675 22.8067 3.86008 24 5.33341 24H14.6667V21.3333Z" fill="#4A9EF0"/>
<path opacity="0.3" d="M18.6667 10.6667H28.0001V26.6667H18.6667V10.6667Z" fill="#4A9EF0"/>
</svg>
