<svg width="20" height="20" viewBox="0 0 20 20" fill="none" xmlns="http://www.w3.org/2000/svg">
<path d="M14.3333 6.54568L17 5.40909L9 2L1 5.40909L3.66667 6.54568V10.023C3.248 10.4061 3 10.9591 3 11.5455C3 12.4155 3.54867 13.1798 4.328 13.4655C5.264 15.6555 7.02867 17 9 17C10.9713 17 12.736 15.6555 13.672 13.4655C14.4513 13.1798 15 12.4155 15 11.5455C15 10.9591 14.752 10.4061 14.3333 10.023V6.54568ZM9 3.4775L13.5333 5.40909L13 5.63614V6.545V7.57114C12.7913 7.49545 12.5667 7.45455 12.3333 7.45455H5.66667C5.43333 7.45455 5.20867 7.49545 5 7.57114V6.54568V5.63614L4.46667 5.40909L9 3.4775ZM13.0913 12.2143L12.7013 12.2695L12.5607 12.6452C11.868 14.4902 10.504 15.6364 9 15.6364C7.496 15.6364 6.132 14.4902 5.44 12.6459L5.29933 12.2702L4.90933 12.215C4.58067 12.1686 4.33333 11.8809 4.33333 11.5455C4.33333 11.3 4.45733 11.0805 4.66533 10.9584L5 10.762V9.5C5 9.12364 5.29867 8.81818 5.66667 8.81818H12.3333C12.7013 8.81818 13 9.12364 13 9.5V10.762L13.3347 10.9584C13.5427 11.0805 13.6667 11.3 13.6667 11.5455C13.6667 11.8809 13.4193 12.1686 13.0913 12.2143Z" fill="white"/>
<path d="M16 5H17V9H16V5Z" fill="white"/>
<path opacity="0.3" d="M9 3L4 4.875V8H9H14V4.875L9 3Z" fill="white"/>
</svg>
