<svg width="48" height="48" viewBox="0 0 48 48" fill="none" xmlns="http://www.w3.org/2000/svg">
<path opacity="0.2" d="M24 31.4985C31.4558 31.4985 37.5 25.4544 37.5 17.9985C37.5 10.5427 31.4558 4.49854 24 4.49854C16.5442 4.49854 10.5 10.5427 10.5 17.9985C10.5 25.4544 16.5442 31.4985 24 31.4985Z" fill="#499EF0"/>
<path d="M24 31.4985C31.4558 31.4985 37.5 25.4544 37.5 17.9985C37.5 10.5427 31.4558 4.49854 24 4.49854C16.5442 4.49854 10.5 10.5427 10.5 17.9985C10.5 25.4544 16.5442 31.4985 24 31.4985Z" stroke="#499EF0" stroke-width="3" stroke-linecap="round" stroke-linejoin="round"/>
<path d="M37.7886 31.7871C34.1316 35.4441 29.1717 37.4985 24 37.4985C18.8283 37.4985 13.8684 35.4441 10.2114 31.7871C6.55446 28.1302 4.5 23.1703 4.5 17.9985C4.5 12.8268 6.55446 7.86692 10.2114 4.20996" stroke="#499EF0" stroke-width="3" stroke-linecap="round" stroke-linejoin="round"/>
<path d="M18 43.4985H30" stroke="#499EF0" stroke-width="3" stroke-linecap="round" stroke-linejoin="round"/>
<path d="M24 37.4985V43.4985" stroke="#499EF0" stroke-width="3" stroke-linecap="round" stroke-linejoin="round"/>
</svg>
