<svg width="32" height="32" viewBox="0 0 32 32" fill="none" xmlns="http://www.w3.org/2000/svg">
<path opacity="0.3" d="M26.0041 17.888L25.6907 16.9307C25.4094 16.0693 24.9268 15.192 24.2948 14.392L23.6454 13.568L23.9534 12.5653C24.0974 12.0947 24.2201 11.6253 24.3214 11.156L24.5161 10.2493L19.0454 10.8587L18.6521 10.7387C17.0321 10.2493 15.2427 10 13.3334 10C4.90275 10 4.66675 17.26 4.66675 17.3333C4.66675 18.4613 5.05608 19.6827 5.79475 20.8653L6.00541 21.2027L7.02808 27.3333H8.97208L9.42541 24.6133L11.6561 25.3733C13.6641 26.0573 15.6974 26.128 17.7121 25.808L19.0481 25.5947L20.0921 27.3333H21.8521L21.3441 24.7907L22.5054 24.0547C23.5921 23.3667 24.4827 22.512 25.0841 21.5827L25.6747 20.6667H27.7707L28.2747 18.644L26.0041 17.888Z" fill="#4A9EF0"/>
<path d="M2.66659 14.6667C2.31296 14.6667 1.97382 14.8072 1.72378 15.0573C1.47373 15.3073 1.33325 15.6465 1.33325 16.0001C1.33325 16.3537 1.47373 16.6928 1.72378 16.9429C1.97382 17.1929 2.31296 17.3334 2.66659 17.3334C3.02021 17.3334 3.35935 17.1929 3.60939 16.9429C3.85944 16.6928 3.99992 16.3537 3.99992 16.0001C3.99992 15.6465 3.85944 15.3073 3.60939 15.0573C3.35935 14.8072 3.02021 14.6667 2.66659 14.6667Z" fill="#4A9EF0"/>
<path d="M29.4947 16.9427L27.5907 16.308C27.2507 15.2707 26.6787 14.1867 25.8641 13.1533C26.3134 11.696 26.6667 9.93733 26.6667 8L19.2334 8.82533C17.5441 8.31333 15.5974 8 13.3334 8C5.33341 8 2.66675 14.0067 2.66675 17.3333C2.66675 18.8853 3.18808 20.468 4.09875 21.9253L5.14808 28.22C5.25475 28.8627 5.81075 29.3333 6.46275 29.3333H9.53741C10.1894 29.3333 10.7454 28.8627 10.8521 28.2187L11.0107 27.2667C12.3614 27.7267 13.8134 28 15.3334 28C16.2601 28 17.1601 27.9227 18.0294 27.7827L18.5707 28.6853C18.8121 29.088 19.2454 29.3333 19.7147 29.3333H22.6667C23.5081 29.3333 24.1388 28.564 23.9748 27.7387L23.5761 25.7453C24.9121 24.9 26.0001 23.852 26.7654 22.6667H28.2934C28.9054 22.6667 29.4387 22.2507 29.5868 21.656L30.3681 18.5307C30.5361 17.8547 30.1561 17.1627 29.4947 16.9427ZM27.2507 20H26.7641H25.3121L24.5241 21.22C23.9747 22.0707 23.1534 22.856 22.1481 23.492L20.6001 24.472L20.9587 26.268L21.0401 26.6667H20.4694L20.3161 26.4107L19.3881 24.8653L17.6081 25.1493C16.8481 25.272 16.0827 25.3333 15.3334 25.3333C14.1854 25.3333 13.0214 25.1347 11.8721 24.7427L8.89741 23.7293L8.40808 26.6667H7.59208L6.72808 21.4867L6.64141 20.9627L6.36008 20.512C5.68808 19.436 5.33341 18.3373 5.33341 17.3333C5.33341 17.2667 5.55075 10.6667 13.3334 10.6667C15.1787 10.6667 16.9027 10.9053 18.4601 11.3773L18.9841 11.536L19.5281 11.476L23.6707 11.016C23.5734 11.4653 23.4561 11.9173 23.3174 12.3693L22.9067 13.7053L23.7721 14.804C24.3561 15.5453 24.8014 16.352 25.0588 17.1373L25.4761 18.4133L26.7494 18.8373L27.4814 19.0813L27.2507 20Z" fill="#4A9EF0"/>
<path d="M21.3333 15.9999C20.5973 15.9999 19.9999 16.5973 19.9999 17.3333C19.9999 18.0693 20.5973 18.6666 21.3333 18.6666C22.0693 18.6666 22.6666 18.0693 22.6666 17.3333C22.6666 16.5973 22.0693 15.9999 21.3333 15.9999ZM13.9999 1.33325C11.4226 1.33325 9.33325 3.42259 9.33325 5.99992C9.33325 8.57725 11.4226 10.6666 13.9999 10.6666C16.5773 10.6666 18.6666 8.57725 18.6666 5.99992C18.6666 3.42259 16.5773 1.33325 13.9999 1.33325ZM13.9999 7.99992C12.8973 7.99992 11.9999 7.10258 11.9999 5.99992C11.9999 4.89725 12.8973 3.99992 13.9999 3.99992C15.1026 3.99992 15.9999 4.89725 15.9999 5.99992C15.9999 7.10258 15.1026 7.99992 13.9999 7.99992Z" fill="#4A9EF0"/>
</svg>
