<svg width="32" height="32" viewBox="0 0 32 32" fill="none" xmlns="http://www.w3.org/2000/svg">
<path opacity="0.3" d="M24.0001 28H8.00008C7.20008 28 6.66675 27.4667 6.66675 26.6667V13.3333C6.66675 12.5333 7.20008 12 8.00008 12H24.0001C24.8001 12 25.3334 12.5333 25.3334 13.3333V26.6667C25.3334 27.4667 24.8001 28 24.0001 28Z" fill="#4A9EF0"/>
<path d="M18.6667 19.9999C18.6667 21.4666 17.4667 22.6666 16 22.6666C14.5333 22.6666 13.3333 21.4666 13.3333 19.9999C13.3333 18.5333 14.5333 17.3333 16 17.3333C17.4667 17.3333 18.6667 18.5333 18.6667 19.9999ZM24 11.9999H21.3333V9.33325C21.3333 6.39992 18.9333 3.99992 16 3.99992C13.0667 3.99992 10.6667 6.39992 10.6667 9.33325V11.9999H8V9.33325C8 4.79992 11.4667 1.33325 16 1.33325C20.5333 1.33325 24 4.79992 24 9.33325V11.9999Z" fill="#4A9EF0"/>
<path d="M23.9999 29.3334H7.99992C6.53325 29.3334 5.33325 28.1334 5.33325 26.6667V13.3334C5.33325 11.8667 6.53325 10.6667 7.99992 10.6667H23.9999C25.4666 10.6667 26.6666 11.8667 26.6666 13.3334V26.6667C26.6666 28.1334 25.4666 29.3334 23.9999 29.3334ZM7.99992 13.3334V26.6667H23.9999V13.3334H7.99992Z" fill="#4A9EF0"/>
</svg>
