<svg width="32" height="32" viewBox="0 0 32 32" fill="none" xmlns="http://www.w3.org/2000/svg">
<g clip-path="url(#clip0_42_3671)">
<path opacity="0.3" d="M22.532 11.4127C21.7812 7.35533 17.6941 4.25 12.7499 4.25C7.27309 4.25 2.83325 8.05517 2.83325 12.75C2.83325 14.3466 3.356 15.8355 4.24992 17.1119V24.0833L8.90934 20.5884C9.71259 20.8774 10.5725 21.0715 11.4678 21.1707C12.2187 25.228 16.3058 28.3333 21.2499 28.3333C22.6113 28.3333 23.909 28.0968 25.0905 27.6718L29.7499 31.1667V24.1953C30.6438 22.9188 31.1666 21.4299 31.1666 19.8333C31.1666 15.5125 27.4011 11.9524 22.532 11.4127Z" fill="#4A9EF0"/>
<path d="M12.7499 7.08333C16.6557 7.08333 19.8333 9.62483 19.8333 12.75C19.8333 15.8752 16.6557 18.4167 12.7499 18.4167C11.7483 18.4167 10.7793 18.2509 9.87125 17.9222L8.43334 17.4037L7.21075 18.3203L7.08325 18.4167V17.1119V16.218L6.57042 15.4856C5.97117 14.6299 5.66659 13.7091 5.66659 12.75C5.66659 9.62483 8.84417 7.08333 12.7499 7.08333ZM12.7499 4.25C7.27309 4.25 2.83325 8.05517 2.83325 12.75C2.83325 14.3466 3.356 15.8355 4.24992 17.1119V24.0833L8.90934 20.5884C10.0908 21.0134 11.3885 21.25 12.7499 21.25C18.2268 21.25 22.6666 17.4448 22.6666 12.75C22.6666 8.05517 18.2268 4.25 12.7499 4.25Z" fill="#4A9EF0"/>
<path d="M21.2499 11.3333V14.1666C25.1557 14.1666 28.3333 16.7081 28.3333 19.8333C28.3333 20.7923 28.0287 21.7132 27.4294 22.5703L26.9166 23.3013V24.1938V25.4999L26.7905 25.405L25.5679 24.4884L24.13 25.0069C23.2205 25.3342 22.2515 25.4999 21.2499 25.4999C17.3442 25.4999 14.1666 22.9584 14.1666 19.8333H11.3333C11.3333 24.5281 15.7731 28.3333 21.2499 28.3333C22.6113 28.3333 23.909 28.0967 25.0905 27.6717L29.7499 31.1666V24.1952C30.6438 22.9188 31.1666 21.4298 31.1666 19.8333C31.1666 15.1384 26.7268 11.3333 21.2499 11.3333Z" fill="#4A9EF0"/>
</g>
<defs>
<clipPath id="clip0_42_3671">
<rect width="32" height="32" fill="white"/>
</clipPath>
</defs>
</svg>
