<svg width="50" height="50" viewBox="0 0 50 50" fill="none" xmlns="http://www.w3.org/2000/svg">
<path d="M11.0586 13.8652L14.0048 10.9189L24.7589 21.6726L21.8127 24.619L11.0586 13.8652Z" fill="#499EF0"/>
<path d="M6.25 10.4167L10.4167 6.25L14.7917 9.16667C16.0417 10 16.6667 11.25 16.6667 12.7083V16.6667H12.7083C11.25 16.6667 10 16.0417 9.16667 14.7917L6.25 10.4167ZM30.8333 28.3333L40.625 38.125C40.8333 38.3333 40.8333 38.5417 40.625 38.5417L38.5417 40.625H38.3333C38.3333 40.625 38.125 40.625 38.125 40.4167L28.3333 30.625L30.8333 28.3333ZM31.25 24.1667L24.375 31.0417L35.8333 42.5C36.4583 43.125 37.5 43.5417 38.3333 43.5417C39.1667 43.5417 40.2083 43.125 40.8333 42.5L42.9167 40.4167C44.375 38.9583 44.375 36.875 42.9167 35.4167L31.25 24.1667Z" fill="#499EF0"/>
<path opacity="0.3" d="M41.2493 39.1667L39.166 41.25C38.9577 41.4583 38.541 41.6667 38.1243 41.6667C37.7077 41.6667 37.4993 41.4583 37.0827 41.25L26.666 30.8333L30.6243 26.875L41.041 37.2917C41.8743 37.7083 41.8743 38.75 41.2493 39.1667Z" fill="#499EF0"/>
<path d="M34.7917 10.2083L35 10.8333L35.8333 14.1667L36.25 15.8333L37.9167 16.25L41.25 17.0833L41.875 17.2917C41.0417 18.75 39.375 19.7917 37.5 19.7917C37.2917 19.7917 37.0833 19.7917 36.6667 19.7917L35.2083 19.5833L34.1667 20.625L14.1667 40.625H13.9583H13.75L11.6667 38.5417C11.4583 38.3333 11.4583 38.125 11.6667 38.125L31.6667 18.125L32.7083 16.875L32.5 15.2083C32.5 15 32.5 14.5833 32.5 14.375C32.2917 12.7083 33.3333 11.0417 34.7917 10.2083ZM37.5 6.25C32.9167 6.25 29.1667 10 29.1667 14.5833C29.1667 15 29.1667 15.4167 29.375 15.8333L9.375 35.8333C7.91667 37.2917 7.91667 39.375 9.375 40.8333L11.4583 42.9167C12.0833 43.3333 12.9167 43.75 13.75 43.75C14.5833 43.75 15.625 43.3333 16.25 42.7083L36.25 22.7083C36.6667 22.7083 37.0833 22.9167 37.5 22.9167C42.0833 22.9167 45.8333 19.1667 45.8333 14.5833C45.8333 13.3333 45.625 12.2917 45 11.25L42.0833 14.1667L38.75 13.3333L37.9167 10L40.8333 7.08333C39.7917 6.45833 38.75 6.25 37.5 6.25Z" fill="#499EF0"/>
</svg>
