<svg width="30" height="30" viewBox="0 0 30 30" fill="none" xmlns="http://www.w3.org/2000/svg">
<path opacity="0.3" d="M21.25 12.5H20H13.75V11.25C13.75 9.86875 12.6313 8.75 11.25 8.75H5C3.61875 8.75 2.5 9.86875 2.5 11.25V17.5C2.5 18.8813 3.61875 20 5 20H10V20.625C10 23.7375 12.5125 26.25 15.625 26.25C18.45 26.25 20.775 24.1875 21.1875 21.475C21.85 22.1125 22.75 22.5 23.75 22.5C25.825 22.5 27.5 20.825 27.5 18.75V12.5H21.25Z" fill="#6264A7"/>
<path d="M11.25 21.25H5C2.9325 21.25 1.25 19.5675 1.25 17.5V11.25C1.25 9.1825 2.9325 7.5 5 7.5H11.25C13.3175 7.5 15 9.1825 15 11.25V17.5C15 19.5675 13.3175 21.25 11.25 21.25ZM5 10C4.31 10 3.75 10.5612 3.75 11.25V17.5C3.75 18.1888 4.31 18.75 5 18.75H11.25C11.94 18.75 12.5 18.1888 12.5 17.5V11.25C12.5 10.5612 11.94 10 11.25 10H5Z" fill="#6264A7"/>
<path d="M15.625 27.5C11.835 27.5 8.75 24.4163 8.75 20.625V20C8.75 19.31 9.30875 18.75 10 18.75C10.6912 18.75 11.25 19.31 11.25 20V20.625C11.25 23.0375 13.2125 25 15.625 25C17.805 25 19.625 23.4388 19.9525 21.2875C19.9788 21.085 20 20.855 20 20.625V13.75H13.75C13.0588 13.75 12.5 13.19 12.5 12.5C12.5 11.81 13.0588 11.25 13.75 11.25H21.25C21.9412 11.25 22.5 11.81 22.5 12.5V20.625C22.5 20.97 22.4725 21.315 22.425 21.645C21.9088 25.045 19.05 27.5 15.625 27.5Z" fill="#6264A7"/>
<path d="M15.625 10C17.6961 10 19.375 8.32107 19.375 6.25C19.375 4.17893 17.6961 2.5 15.625 2.5C13.5539 2.5 11.875 4.17893 11.875 6.25C11.875 8.32107 13.5539 10 15.625 10Z" fill="#6264A7"/>
<path d="M23.75 10C25.1307 10 26.25 8.88071 26.25 7.5C26.25 6.11929 25.1307 5 23.75 5C22.3693 5 21.25 6.11929 21.25 7.5C21.25 8.88071 22.3693 10 23.75 10Z" fill="#6264A7"/>
<path d="M23.75 23.75C22.4613 23.75 21.2425 23.2625 20.3212 22.3762C19.825 21.8987 19.8087 21.1062 20.2875 20.6087C20.7662 20.1112 21.5562 20.095 22.055 20.5737C22.5075 21.01 23.11 21.25 23.75 21.25C25.1287 21.25 26.25 20.1287 26.25 18.75V13.75H20C19.3088 13.75 18.75 13.19 18.75 12.5C18.75 11.81 19.3088 11.25 20 11.25H27.5C28.1912 11.25 28.75 11.81 28.75 12.5V18.75C28.75 21.5075 26.5075 23.75 23.75 23.75Z" fill="#6264A7"/>
<path d="M8.75 11.25H7.5V17.5H8.75V11.25Z" fill="#6264A7"/>
<path d="M11.25 12.5V11.25H5V12.5H11.25Z" fill="#6264A7"/>
</svg>
