<svg width="32" height="32" viewBox="0 0 32 32" fill="none" xmlns="http://www.w3.org/2000/svg">
<path d="M23.9999 18.6666H18.6666V23.9999L20.5453 22.1213C21.0386 22.8693 21.3333 23.7359 21.3333 24.6666C21.3333 27.0119 19.5893 28.9386 17.3333 29.2653V31.9653C21.0639 31.6266 23.9999 28.4839 23.9999 24.6653C23.9999 23.0106 23.4519 21.4586 22.4719 20.1933L23.9999 18.6666ZM11.9999 24.6666C11.9999 22.3213 13.7439 20.3946 15.9999 20.0679V17.3679C12.2693 17.7066 9.33325 20.8479 9.33325 24.6679C9.33325 26.3226 9.88125 27.8746 10.8613 29.1399L9.33325 30.6666H14.6666V25.3333L12.7879 27.2119C12.2946 26.4639 11.9999 25.5973 11.9999 24.6666Z" fill="#4A9EF0"/>
<path d="M24.94 9.33875C23.7853 5.40808 20.1987 2.66675 16 2.66675C12.9453 2.66675 10.0813 4.18408 8.344 6.67208C3.71333 6.84275 0 10.6627 0 15.3334C0 19.4387 2.87333 22.8801 6.712 23.7694C6.79333 22.8601 7.00133 21.9881 7.30933 21.1641C4.656 20.5454 2.66667 18.1734 2.66667 15.3334C2.66667 12.0254 5.35867 9.33342 8.66667 9.33342L9.812 9.39608L10.2227 8.68541C11.412 6.61741 13.6267 5.33341 16 5.33341C19.296 5.33341 22.06 7.69742 22.576 10.9534L22.7773 12.2334L24.2413 12.0427C24.3813 12.0241 24.5213 12.0001 24.6667 12.0001C27.24 12.0001 29.3333 14.0934 29.3333 16.6667C29.3333 18.7721 27.924 20.5347 26.0053 21.1147C26.32 21.9401 26.5347 22.8147 26.62 23.7281C29.716 22.8694 32 20.0334 32 16.6667C32 12.7147 28.8573 9.48275 24.94 9.33875Z" fill="#4A9EF0"/>
<path opacity="0.3" d="M24.6666 10.6667C24.4013 10.6667 24.1479 10.712 23.8919 10.7453C23.2879 6.924 19.9906 4 15.9999 4C13.0319 4 10.4479 5.62 9.06659 8.02C8.93325 8.01333 8.80125 8 8.66658 8C4.61592 8 1.33325 11.2827 1.33325 15.3333C1.33325 18.7813 3.71592 21.6653 6.92125 22.4493C7.93192 17.9947 11.9066 14.6667 16.6666 14.6667C21.4026 14.6667 25.3599 17.9627 26.3946 22.384C28.8599 21.6373 30.6666 19.3747 30.6666 16.6667C30.6666 13.3533 27.9799 10.6667 24.6666 10.6667Z" fill="#4A9EF0"/>
</svg>
