<svg width="32" height="32" viewBox="0 0 32 32" fill="none" xmlns="http://www.w3.org/2000/svg">
<g clip-path="url(#clip0_42_3658)">
<path d="M24.6666 12.0001H17.3333V4.66675L24.6666 12.0001ZM25.9999 18.6667C25.1159 18.6667 24.268 19.0179 23.6429 19.6431C23.0178 20.2682 22.6666 21.116 22.6666 22.0001C22.6666 22.8841 23.0178 23.732 23.6429 24.3571C24.268 24.9822 25.1159 25.3334 25.9999 25.3334C26.884 25.3334 27.7318 24.9822 28.3569 24.3571C28.9821 23.732 29.3333 22.8841 29.3333 22.0001C29.3333 21.116 28.9821 20.2682 28.3569 19.6431C27.7318 19.0179 26.884 18.6667 25.9999 18.6667Z" fill="#4A9EF0"/>
<path d="M18.7986 26.6667H7.99992V5.33341H17.5626L23.9999 11.7707V16.3667C24.6279 16.1441 25.2946 16.0001 25.9999 16.0001C26.2279 16.0001 26.4453 16.0427 26.6666 16.0667V10.6667L18.6666 2.66675H7.99992C6.52925 2.66675 5.33325 3.86275 5.33325 5.33341V26.6667C5.33325 28.1374 6.52925 29.3334 7.99992 29.3334H17.4546C17.6519 28.3814 18.0973 27.4654 18.7986 26.6667ZM31.9999 32.0001H19.9999V30.5094C19.9999 28.0241 22.5226 26.6667 25.9999 26.6667C29.4773 26.6667 31.9999 28.0241 31.9999 30.5094V32.0001Z" fill="#4A9EF0"/>
<path opacity="0.3" d="M20.8387 25.1013C20.3094 24.2053 20.0001 23.1533 20.0001 22C20.0001 18.8293 22.2707 16.384 25.3334 16.064V11.2187L18.1147 4H8.00008C7.26541 4 6.66675 4.59867 6.66675 5.33333V26.6667C6.66675 27.4013 7.26541 28 8.00008 28H17.9107C18.4654 26.8507 19.4307 25.828 20.8387 25.1013Z" fill="#4A9EF0"/>
</g>
<defs>
<clipPath id="clip0_42_3658">
<rect width="32" height="32" fill="white"/>
</clipPath>
</defs>
</svg>
