<svg width="124" height="30" viewBox="0 0 124 30" fill="none" xmlns="http://www.w3.org/2000/svg">
<path d="M78.5208 28.9239H87.2831V26.9085H80.9327V23.2158H86.6781V21.2397H80.9327V17.3739H87.089V15.4121H78.5208V28.9239Z" fill="#175788"/>
<path d="M74.0055 28.9239H76.664L73.6706 23.0242C74.9208 22.6193 76.3825 21.6302 76.3825 19.2975C76.3825 17.584 75.5207 16.5424 74.3219 15.9602C73.5124 15.5718 72.5786 15.4121 71.6634 15.4121H66.5384V28.9239H68.9514V23.5198H71.3809L74.0055 28.9239ZM68.9514 21.5601V17.1255H71.4332C72.6844 17.1255 73.8986 17.6562 73.8986 19.2985C73.8986 21.0109 72.7728 21.5601 71.3809 21.5601H68.9514Z" fill="#175788"/>
<path d="M58.1734 28.922H60.5186V22.6092C60.5186 20.327 59.4955 19.3018 57.3979 19.3018C55.8632 19.3018 54.877 20.1508 54.4528 21.0359H54.4178V14.9868H52.0911V28.922H54.4178V23.3871C54.4178 21.9539 55.141 21.0173 56.5689 21.0173C57.1339 21.0173 57.592 21.1946 57.8735 21.583C58.156 21.9889 58.1734 22.6092 58.1734 23.28V28.922Z" fill="#175788"/>
<path d="M50.3808 22.6446C50.275 20.3459 48.5471 19.2847 46.2728 19.2847C43.452 19.2847 41.7252 21.265 41.7252 24.2354C41.7252 27.277 43.3472 29.1511 46.2379 29.1511C48.5471 29.1511 50.2934 27.9487 50.4332 25.615H48.1773C48.1424 26.4455 47.7017 27.5242 46.2553 27.5242C44.5624 27.5242 44.1228 25.9684 44.1228 24.1829C44.1228 22.3437 44.7391 20.859 46.2728 20.859C47.4541 20.859 48.0006 21.6719 48.089 22.6446H50.3808Z" fill="#175788"/>
<path d="M37.8462 28.9221H40.1914V19.5142H39.1282H37.8462V28.9221Z" fill="#175788"/>
<path d="M37.8286 17.658H40.2077V15.4819H39.0418H37.8286V17.658Z" fill="#175788"/>
<path d="M33.351 28.922H35.6962V22.6091C35.6962 20.3269 34.673 19.3018 32.5754 19.3018C31.0232 19.3018 30.0186 20.1332 29.5419 21.0873H29.507V19.514H27.2686V28.922H29.5954V23.387C29.5954 21.9538 30.3185 21.0173 31.7464 21.0173C32.3104 21.0173 32.7696 21.1945 33.051 21.5829C33.3335 21.9889 33.351 22.6091 33.351 23.2799V28.922Z" fill="#175788"/>
<path d="M18.9821 19.5142H16.6554V25.9156C16.6554 28.1257 17.7134 29.1333 19.8111 29.1333C21.3273 29.1333 22.2795 28.3019 22.7377 27.3653H22.7726V28.9221H25.0295V19.5142H22.6843V24.6421C22.6843 26.4462 21.9981 27.4189 20.5877 27.4189C20.0052 27.4189 19.5635 27.2416 19.2995 26.8357C19.018 26.4462 18.9821 25.8085 18.9821 25.1367V19.5142Z" fill="#175788"/>
<path d="M14.4759 28.9228V15.0483H10.8158L9.92926 17.551L8.28053 22.2854C7.88299 23.4662 7.70425 24.1915 7.70425 24.1915H7.65186C7.65186 24.1915 7.45463 23.4486 7.06222 22.2875L5.39603 17.5376L4.52287 15.0483H0.850464V28.9228H3.06931V17.5397H3.1217C3.1217 17.5397 3.66409 19.3149 3.6682 19.3201L6.47155 27.4597H8.65753L11.5729 18.9502C11.6468 18.7277 12.0187 17.5222 12.0187 17.5222H12.0711V28.9228H14.4759Z" fill="#175788"/>
<path d="M95.1643 26.9067V28.92H109.693L111.558 26.9067H95.1643Z" fill="#175788"/>
<path d="M95.1643 15.4087V17.3467H120.311L122.104 15.4087H95.1643Z" fill="#175788"/>
<path d="M119.936 11.4219L117.83 9.46631H95.1643V11.4219H119.936Z" fill="#175788"/>
<path d="M95.1643 21.2417V23.2168H114.926L116.75 21.2417H95.1643Z" fill="#175788"/>
<path d="M113.758 5.67343L111.61 3.67871H95.1643V5.67343H113.758Z" fill="#175788"/>
<path d="M123.15 26.0885V24.0938H104.511L106.658 26.0885H123.15Z" fill="#175788"/>
<path d="M123.15 6.55225H103.391L101.563 8.52739H123.15V6.55225Z" fill="#175788"/>
<path d="M123.15 20.3027V18.3472H98.3405L100.449 20.3027H123.15Z" fill="#175788"/>
<path d="M98.0093 12.4214L96.225 14.3584H123.149V12.4214H98.0093Z" fill="#175788"/>
<path d="M106.765 2.86136H123.15V0.849121H108.621L106.765 2.86136Z" fill="#175788"/>
</svg>
