<svg width="137" height="23" viewBox="0 0 137 23" fill="none" xmlns="http://www.w3.org/2000/svg">
<g clip-path="url(#clip0_42_5187)">
<path d="M0 0.248047H2.06713V7.96298L1.72964 9.36945H2.32025C2.84758 7.42521 4.55612 5.89463 7.42479 5.89463C11.0739 5.89463 13.3941 8.64553 13.3941 12.2858C13.3941 15.9261 11.0739 18.7184 7.42479 18.7184C4.53503 18.7184 2.84758 17.1878 2.32025 15.2642H1.72964L2.06713 16.65V18.4702H0V0.248047ZM6.81309 17.0016C9.42864 17.0016 11.3481 15.6159 11.3481 12.3065C11.3481 8.99715 9.42864 7.65272 6.81309 7.65272C4.19754 7.65272 2.06713 9.03852 2.06713 12.3065C2.06713 15.5745 4.21863 17.0016 6.79199 17.0016H6.81309Z" fill="black"/>
<path d="M14.1535 16.7537H17.6972V1.77888L15.0816 2.0064V0.248302L18.0135 0.000100736C19.1737 -0.103317 19.7432 0.53787 19.7432 1.71683V16.7537H23.2657V18.4911H14.1535V16.7537Z" fill="black"/>
<path d="M28.4547 11.4794L33.4748 11.0037C33.3483 8.74916 32.1038 7.63225 29.9312 7.63225C28.1172 7.63225 26.4086 8.41823 26.4086 10.7555H24.3837C24.3837 8.19071 26.3664 5.91553 29.9312 5.91553C33.4959 5.91553 35.542 8.19071 35.542 11.5001V16.7537H37.3982V18.4911H35.1623C34.192 18.4911 33.6647 17.974 33.6647 17.0432V16.3814L34.0022 15.099H33.3905C32.9053 16.9812 31.5764 18.7393 28.539 18.7393C24.8899 18.7393 24.3415 16.3607 24.3415 15.0576C24.3415 13.0927 25.5227 11.7689 28.4547 11.4587V11.4794ZM28.7921 17.0019C31.6608 17.0019 33.4748 15.0576 33.4748 12.5135L28.8132 12.9893C27.2313 13.1341 26.4086 13.6098 26.4086 14.8301C26.4086 16.2366 27.3156 17.0225 28.7921 17.0225V17.0019Z" fill="black"/>
<path d="M44.2956 5.9157C46.7213 5.9157 49.8431 7.26013 50.1595 10.8177H48.0502C47.6916 8.45977 46.1096 7.63243 44.2745 7.63243C41.2793 7.63243 39.9293 9.76283 39.9293 12.2862C39.9293 14.8096 41.3004 16.9814 44.2745 16.9814C46.0885 16.9814 47.6916 16.154 48.0502 13.7961H50.1595C49.822 17.3743 46.7213 18.7188 44.2956 18.7188C40.2246 18.7188 37.8622 15.8644 37.8622 12.2862C37.8622 8.70797 40.2246 5.89502 44.2956 5.89502V5.9157Z" fill="black"/>
<path d="M56.9726 12.7615L54.336 14.168V18.4909H52.2688V0.248047H54.336V12.0376L60.7272 8.60416L60.4741 6.14283H62.5412L62.7521 8.39733C62.8365 9.22467 62.4568 9.8038 61.7397 10.1761L58.6601 11.8308L63.5115 18.4495H61.149L56.9515 12.7202L56.9726 12.7615Z" fill="black"/>
<path d="M69.9449 18.7393C65.8739 18.7393 64.2076 16.8778 64.2076 13.9614H66.2747C66.2747 16.0918 67.5403 17.0846 69.966 17.0846C71.9065 17.0846 72.8346 16.6296 72.8346 15.3679C72.8346 13.7546 71.1472 13.4857 69.0801 12.8652C66.6965 12.1206 64.7771 11.3966 64.7771 9.16283C64.7771 7.1979 66.4645 5.91553 69.3543 5.91553C73.2776 5.91553 74.4588 8.02524 74.4588 10.0522H72.3917C72.3917 8.39754 71.3581 7.5702 69.3543 7.5702C67.9621 7.5702 66.8442 7.96319 66.8442 9.0801C66.8442 10.2797 67.709 10.652 69.734 11.2932C72.2229 12.0792 74.9018 12.6376 74.9018 15.2851C74.9018 17.1466 73.7206 18.7393 69.9449 18.7393Z" fill="black"/>
<path d="M78.804 6.16373V7.98387L78.4665 9.39035H79.0571C79.5845 7.4461 81.2508 5.91553 84.1406 5.91553C87.7897 5.91553 90.131 8.66643 90.131 12.3481C90.131 16.0297 87.7686 18.7393 84.1406 18.7393C81.2508 18.7393 79.5845 17.2087 79.0571 15.2851H78.4665L78.804 16.6709V23.0001H76.7369V6.16373H78.804ZM83.5289 17.0019C86.1444 17.0019 88.0639 15.554 88.0639 12.3481C88.0639 9.14215 86.1444 7.65294 83.5289 7.65294C80.9133 7.65294 78.804 9.03873 78.804 12.3481C78.804 15.6574 80.9555 17.0019 83.5289 17.0019Z" fill="black"/>
<path d="M95.8262 11.4794L100.846 11.0037C100.72 8.74916 99.4753 7.63225 97.3027 7.63225C95.4887 7.63225 93.7801 8.41823 93.7801 10.7555H91.7552C91.7552 8.19071 93.738 5.91553 97.3027 5.91553C100.867 5.91553 102.913 8.19071 102.913 11.5001V16.7537H104.77V18.4911H102.534C101.564 18.4911 101.036 17.974 101.036 17.0432V16.3814L101.374 15.099H100.762C100.277 16.9812 98.948 18.7393 95.9106 18.7393C92.2614 18.7393 91.713 16.3607 91.713 15.0576C91.713 13.0927 92.8942 11.7689 95.8262 11.4587V11.4794ZM96.1637 17.0019C99.0323 17.0019 100.846 15.0576 100.846 12.5135L96.1848 12.9893C94.6028 13.1341 93.7801 13.6098 93.7801 14.8301C93.7801 16.2366 94.6871 17.0225 96.1637 17.0225V17.0019Z" fill="black"/>
<path d="M111.667 5.9157C114.093 5.9157 117.215 7.26013 117.531 10.8177H115.422C115.063 8.45977 113.481 7.63243 111.646 7.63243C108.651 7.63243 107.301 9.76283 107.301 12.2862C107.301 14.8096 108.672 16.9814 111.646 16.9814C113.46 16.9814 115.063 16.154 115.422 13.7961H117.531C117.194 17.3743 114.093 18.7188 111.667 18.7188C107.596 18.7188 105.234 15.8644 105.234 12.2862C105.234 8.70797 107.596 5.89502 111.667 5.89502V5.9157Z" fill="black"/>
<path d="M125.061 5.91553C128.605 5.91553 130.925 8.12866 130.925 11.9137V12.6997H120.99C121.117 15.0369 122.256 17.0432 125.378 17.0432C127.445 17.0432 128.837 16.0504 129.301 14.1682H131.368C130.883 16.0711 129.364 18.7393 125.378 18.7393C120.885 18.7393 118.986 15.7195 118.986 12.1619C118.986 8.19071 121.518 5.91553 125.082 5.91553H125.061ZM128.9 11.1691C128.9 9.18351 127.55 7.63225 125.061 7.63225C122.572 7.63225 120.99 9.2042 120.99 11.1691H128.9Z" fill="black"/>
<path d="M133.245 0.744629H137V11.2932H135.102V2.21315L135.313 1.32377H134.933C134.785 3.5369 134.131 5.33636 131.874 6.39121L131.157 4.79859C132.697 3.7851 133.224 2.91639 133.267 0.765312L133.245 0.744629Z" fill="black"/>
</g>
<defs>
<clipPath id="clip0_42_5187">
<rect width="137" height="23" fill="white"/>
</clipPath>
</defs>
</svg>
