<svg width="56" height="56" viewBox="0 0 56 56" fill="none" xmlns="http://www.w3.org/2000/svg">
<rect width="56" height="56" rx="8" fill="#47C1FE" fill-opacity="0.2"/>
<path d="M21.7495 29.0739L35.7991 41.4375C35.9617 41.5805 36.1586 41.6789 36.3706 41.723C36.5826 41.767 36.8024 41.7552 37.0085 41.6888C37.2146 41.6223 37.3999 41.5035 37.5462 41.3439C37.6926 41.1843 37.7949 40.9894 37.8433 40.7783L43.7205 15.1326C43.7713 14.9109 43.7606 14.6795 43.6896 14.4634C43.6187 14.2472 43.49 14.0546 43.3177 13.9061C43.1453 13.7577 42.9357 13.6591 42.7114 13.621C42.4871 13.583 42.2567 13.6068 42.045 13.69L13.208 25.0188C12.9567 25.1175 12.7441 25.295 12.602 25.5246C12.4599 25.7542 12.3961 26.0237 12.4199 26.2927C12.4438 26.5616 12.5541 26.8156 12.7344 27.0167C12.9146 27.2177 13.1551 27.355 13.4199 27.4079L21.7495 29.0739Z" stroke="#47C1FE" stroke-width="2.5" stroke-linecap="round" stroke-linejoin="round"/>
<path d="M21.75 29.0739L43.0175 13.714" stroke="#47C1FE" stroke-width="2.5" stroke-linecap="round" stroke-linejoin="round"/>
<path d="M28.7667 35.2486L23.8839 40.1314C23.7091 40.3062 23.4863 40.4253 23.2439 40.4735C23.0014 40.5217 22.7501 40.497 22.5216 40.4024C22.2932 40.3078 22.098 40.1476 21.9607 39.942C21.8233 39.7364 21.75 39.4948 21.75 39.2475V29.0739" stroke="#47C1FE" stroke-width="2.5" stroke-linecap="round" stroke-linejoin="round"/>
</svg>
