<svg width="176" height="27" viewBox="0 0 176 27" fill="none" xmlns="http://www.w3.org/2000/svg">
<path fill-rule="evenodd" clip-rule="evenodd" d="M162.521 0C155.08 0 149.047 6.01109 149.047 13.4262H175.995C175.995 6.01109 169.963 0 162.521 0Z" fill="#FFDA00"/>
<path fill-rule="evenodd" clip-rule="evenodd" d="M162.521 26.8525C155.08 26.8525 149.047 20.8414 149.047 13.4263H175.995C175.995 20.8414 169.963 26.8525 162.521 26.8525Z" fill="#2071B5"/>
<path fill-rule="evenodd" clip-rule="evenodd" d="M41.2896 6.16846H28.7802V9.4518H33.2351V21.4908H37.2622V9.4518H41.2896V6.16846Z" fill="#4E4B48"/>
<path fill-rule="evenodd" clip-rule="evenodd" d="M42.6927 6.16846V9.4518H46.7201V21.4908H50.7472V9.4518H55.2021V6.16846H42.6927Z" fill="#4E4B48"/>
<path fill-rule="evenodd" clip-rule="evenodd" d="M85.8525 21.4913V6.16895H82.0084V15.3378L75.1556 6.16895H71.3114V21.4913H75.1556V12.4332L82.0084 21.4913H85.8525Z" fill="#4E4B48"/>
<path fill-rule="evenodd" clip-rule="evenodd" d="M57.1543 21.4913H61.1817H68.5245V18.208H61.1817V15.1924H67.4056V11.909H61.1817V9.45229H68.5245V6.16895H57.1543V21.4913Z" fill="#4E4B48"/>
<path fill-rule="evenodd" clip-rule="evenodd" d="M88.9165 21.4913H92.9439V15.2895H99.4447V12.0059H92.9439V9.45229H100.653V6.16895H88.9165V21.4913Z" fill="#4E4B48"/>
<path fill-rule="evenodd" clip-rule="evenodd" d="M12.687 6.16846L8.30766 16.941H8.2731L3.89398 6.16846H0.000106812L6.30827 21.4908H10.2727L16.5809 6.16846H12.687Z" fill="#4E4B48"/>
<path fill-rule="evenodd" clip-rule="evenodd" d="M130.239 21.4913H141.359V18.0898H134.266V6.16895H130.239V21.4913Z" fill="#4E4B48"/>
<path fill-rule="evenodd" clip-rule="evenodd" d="M117.382 21.4913H128.502V18.0898H121.409V6.16895H117.382V21.4913Z" fill="#4E4B48"/>
<path fill-rule="evenodd" clip-rule="evenodd" d="M105.573 15.6365L107.677 10.4032H107.704L109.815 15.636L105.573 15.6365ZM112.178 21.4913H116.072L109.662 6.16895H109.612H105.768H105.718L99.3084 21.4913H103.202L104.306 18.7552H111.074L112.178 21.4913Z" fill="#4E4B48"/>
<path fill-rule="evenodd" clip-rule="evenodd" d="M20.2488 15.6365L22.3529 10.4032H22.3795L24.4912 15.636L20.2488 15.6365ZM26.8543 21.4913H30.7479L24.3381 6.16895H24.2879H20.4442H20.3943L13.9842 21.4913H17.8781L18.9823 18.7552H25.7501L26.8543 21.4913Z" fill="#4E4B48"/>
</svg>
