<svg width="56" height="56" viewBox="0 0 56 56" fill="none" xmlns="http://www.w3.org/2000/svg">
<rect width="56" height="56" rx="8" fill="#145AFF" fill-opacity="0.2"/>
<path d="M21.125 44.25C22.1196 44.25 23.0734 43.8549 23.7767 43.1516C24.4799 42.4484 24.875 41.4946 24.875 40.5V33" stroke="#145AFF" stroke-width="2.5" stroke-linecap="round" stroke-linejoin="round"/>
<path d="M34.875 44.25C33.8804 44.25 32.9266 43.8549 32.2233 43.1516C31.5201 42.4484 31.125 41.4946 31.125 40.5V33" stroke="#145AFF" stroke-width="2.5" stroke-linecap="round" stroke-linejoin="round"/>
<path d="M31.75 33H34.25C35.2446 33 36.1984 33.3951 36.9017 34.0983C37.6049 34.8016 38 35.7554 38 36.75V38C38 38.9946 38.3951 39.9484 39.0983 40.6517C39.8016 41.3549 40.7554 41.75 41.75 41.75" stroke="#145AFF" stroke-width="2.5" stroke-linecap="round" stroke-linejoin="round"/>
<path d="M24.25 33H21.75C20.7554 33 19.8016 33.3951 19.0983 34.0983C18.3951 34.8016 18 35.7554 18 36.75V38C18 38.9946 17.6049 39.9484 16.9017 40.6517C16.1984 41.3549 15.2446 41.75 14.25 41.75" stroke="#145AFF" stroke-width="2.5" stroke-linecap="round" stroke-linejoin="round"/>
<path d="M18.08 19.985C17.6428 18.854 17.4649 17.6394 17.5592 16.4306C17.6536 15.2218 18.0178 14.0495 18.625 13C19.9896 12.9992 21.3323 13.3424 22.5291 13.9978C23.726 14.6532 24.7383 15.5997 25.4726 16.7498V16.75H30.5274V16.7498C31.2617 15.5997 32.274 14.6532 33.4709 13.9978C34.6677 13.3424 36.0105 12.9992 37.375 13C37.9823 14.0495 38.3465 15.2218 38.4408 16.4306C38.5351 17.6394 38.3572 18.854 37.9201 19.985C38.7883 21.2376 39.2525 22.7259 39.25 24.25V25.5C39.25 27.4891 38.4598 29.3968 37.0533 30.8033C35.6468 32.2098 33.7391 33 31.75 33H24.25C22.2609 33 20.3532 32.2098 18.9467 30.8033C17.5402 29.3968 16.75 27.4891 16.75 25.5V24.25C16.7476 22.7259 17.2117 21.2376 18.08 19.985Z" stroke="#145AFF" stroke-width="2.5" stroke-linecap="round" stroke-linejoin="round"/>
</svg>
