<svg width="159" height="24" viewBox="0 0 159 24" fill="none" xmlns="http://www.w3.org/2000/svg">
<g clip-path="url(#clip0_1404_32)">
<path d="M5.83428 18.8817C4.22196 18.8817 2.90052 18.5309 1.86996 17.8294C0.839405 17.128 0.216085 16.1259 0 14.8231L2.89221 14.0716C3.00856 14.6561 3.19971 15.1154 3.46566 15.4495C3.74824 15.7835 4.08898 16.0257 4.48791 16.176C4.90346 16.3096 5.35225 16.3764 5.83428 16.3764C6.56565 16.3764 7.10586 16.2511 7.45492 16.0006C7.80398 15.7334 7.97851 15.4077 7.97851 15.0236C7.97851 14.6394 7.81229 14.3471 7.47985 14.1467C7.14741 13.9296 6.61551 13.7542 5.88415 13.6206L5.18603 13.4954C4.32169 13.3283 3.53215 13.1029 2.81741 12.8189C2.10267 12.5183 1.52921 12.1091 1.09704 11.5914C0.664875 11.0736 0.448791 10.4055 0.448791 9.58716C0.448791 8.35124 0.897582 7.40759 1.79516 6.75623C2.69275 6.08816 3.8729 5.75412 5.33563 5.75412C6.71524 5.75412 7.86215 6.0631 8.77636 6.68107C9.69056 7.29903 10.2889 8.10906 10.5715 9.11116L7.65438 10.0131C7.5214 9.37839 7.24714 8.92745 6.8316 8.66022C6.43267 8.39299 5.93401 8.25938 5.33563 8.25938C4.73724 8.25938 4.28014 8.36794 3.96432 8.58506C3.6485 8.78548 3.4906 9.06941 3.4906 9.43685C3.4906 9.83769 3.65682 10.1383 3.98925 10.3387C4.32169 10.5225 4.77048 10.6644 5.33563 10.7646L6.03374 10.8899C6.96457 11.0569 7.80398 11.2824 8.55196 11.5663C9.31657 11.8335 9.91496 12.226 10.3471 12.7438C10.7959 13.2448 11.0203 13.9296 11.0203 14.7981C11.0203 16.1008 10.5466 17.1113 9.59914 17.8294C8.66831 18.5309 7.41336 18.8817 5.83428 18.8817Z" fill="white"/>
<path d="M17.5155 18.8817C16.6345 18.8817 15.845 18.7313 15.1469 18.4307C14.4488 18.1134 13.8919 17.6624 13.4764 17.0779C13.0775 16.4766 12.878 15.7501 12.878 14.8983C12.878 14.0465 13.0775 13.3367 13.4764 12.7688C13.8919 12.1843 14.4571 11.75 15.1718 11.4661C15.9032 11.1655 16.7343 11.0152 17.6651 11.0152H21.056V10.3137C21.056 9.72913 20.8731 9.25313 20.5074 8.88569C20.1418 8.50155 19.56 8.30948 18.7621 8.30948C17.9809 8.30948 17.3992 8.4932 17.0169 8.86064C16.6345 9.21137 16.3852 9.67067 16.2689 10.2385L13.3767 9.26148C13.5761 8.62681 13.8919 8.05061 14.3241 7.53285C14.7729 6.9984 15.363 6.57251 16.0943 6.25517C16.8423 5.92114 17.7482 5.75412 18.812 5.75412C20.441 5.75412 21.7292 6.16331 22.6766 6.9817C23.6241 7.80008 24.0978 8.9859 24.0978 10.5392V15.1739C24.0978 15.6749 24.3305 15.9255 24.7959 15.9255H25.7932V18.5309H23.6989C23.0838 18.5309 22.5769 18.3806 22.1779 18.08C21.779 17.7793 21.5796 17.3785 21.5796 16.8775V16.8524H21.1058C21.0393 17.0528 20.8898 17.32 20.657 17.6541C20.4243 17.9714 20.0587 18.2553 19.56 18.5059C19.0613 18.7564 18.3798 18.8817 17.5155 18.8817ZM18.064 16.3263C18.945 16.3263 19.6597 16.0841 20.2083 15.5998C20.7734 15.0987 21.056 14.439 21.056 13.6206V13.3701H17.8895C17.3077 13.3701 16.8506 13.4954 16.5182 13.7459C16.1858 13.9964 16.0195 14.3471 16.0195 14.7981C16.0195 15.249 16.1941 15.6165 16.5431 15.9004C16.8922 16.1843 17.3992 16.3263 18.064 16.3263Z" fill="white"/>
<path d="M31.9298 18.8817C31.0488 18.8817 30.2593 18.7313 29.5612 18.4307C28.8631 18.1134 28.3062 17.6624 27.8907 17.0779C27.4918 16.4766 27.2923 15.7501 27.2923 14.8983C27.2923 14.0465 27.4918 13.3367 27.8907 12.7688C28.3062 12.1843 28.8714 11.75 29.5861 11.4661C30.3175 11.1655 31.1486 11.0152 32.0794 11.0152H35.4703V10.3137C35.4703 9.72913 35.2874 9.25313 34.9217 8.88569C34.5561 8.50155 33.9743 8.30948 33.1764 8.30948C32.3952 8.30948 31.8134 8.4932 31.4311 8.86064C31.0488 9.21137 30.7995 9.67067 30.6832 10.2385L27.791 9.26148C27.9904 8.62681 28.3062 8.05061 28.7384 7.53285C29.1872 6.9984 29.7773 6.57251 30.5086 6.25517C31.2566 5.92114 32.1625 5.75412 33.2263 5.75412C34.8553 5.75412 36.1435 6.16331 37.0909 6.9817C38.0383 7.80008 38.5121 8.9859 38.5121 10.5392V15.1739C38.5121 15.6749 38.7448 15.9255 39.2102 15.9255H40.2075V18.5309H38.1131C37.4981 18.5309 36.9912 18.3806 36.5922 18.08C36.1933 17.7793 35.9939 17.3785 35.9939 16.8775V16.8524H35.5201C35.4536 17.0528 35.304 17.32 35.0713 17.6541C34.8386 17.9714 34.4729 18.2553 33.9743 18.5059C33.4756 18.7564 32.7941 18.8817 31.9298 18.8817ZM32.4783 16.3263C33.3593 16.3263 34.074 16.0841 34.6225 15.5998C35.1877 15.0987 35.4703 14.439 35.4703 13.6206V13.3701H32.3038C31.722 13.3701 31.2649 13.4954 30.9325 13.7459C30.6001 13.9964 30.4338 14.3471 30.4338 14.7981C30.4338 15.249 30.6084 15.6165 30.9574 15.9004C31.3065 16.1843 31.8134 16.3263 32.4783 16.3263Z" fill="white"/>
<path d="M47.5432 18.8817C45.9309 18.8817 44.6094 18.5309 43.5789 17.8294C42.5483 17.128 41.925 16.1259 41.7089 14.8231L44.6011 14.0716C44.7175 14.6561 44.9086 15.1154 45.1746 15.4495C45.4572 15.7835 45.7979 16.0257 46.1968 16.176C46.6124 16.3096 47.0612 16.3764 47.5432 16.3764C48.2746 16.3764 48.8148 16.2511 49.1638 16.0006C49.5129 15.7334 49.6874 15.4077 49.6874 15.0236C49.6874 14.6394 49.5212 14.3471 49.1888 14.1467C48.8563 13.9296 48.3244 13.7542 47.5931 13.6206L46.895 13.4954C46.0306 13.3283 45.2411 13.1029 44.5263 12.8189C43.8116 12.5183 43.2381 12.1091 42.806 11.5914C42.3738 11.0736 42.1577 10.4055 42.1577 9.58716C42.1577 8.35124 42.6065 7.40759 43.5041 6.75623C44.4017 6.08816 45.5818 5.75412 47.0446 5.75412C48.4242 5.75412 49.5711 6.0631 50.4853 6.68107C51.3995 7.29903 51.9979 8.10906 52.2804 9.11116L49.3633 10.0131C49.2303 9.37839 48.9561 8.92745 48.5405 8.66022C48.1416 8.39299 47.6429 8.25938 47.0446 8.25938C46.4462 8.25938 45.9891 8.36794 45.6732 8.58506C45.3574 8.78548 45.1995 9.06941 45.1995 9.43685C45.1995 9.83769 45.3657 10.1383 45.6982 10.3387C46.0306 10.5225 46.4794 10.6644 47.0446 10.7646L47.7427 10.8899C48.6735 11.0569 49.5129 11.2824 50.2609 11.5663C51.0255 11.8335 51.6239 12.226 52.056 12.7438C52.5048 13.2448 52.7292 13.9296 52.7292 14.7981C52.7292 16.1008 52.2555 17.1113 51.3081 17.8294C50.3772 18.5309 49.1223 18.8817 47.5432 18.8817Z" fill="white"/>
<path d="M60.6409 9.23643C61.3058 8.16752 62.0289 7.39924 62.8101 6.93159C63.6079 6.46395 64.5138 6.23012 65.5278 6.23012C66.1926 6.23012 66.8076 6.33033 67.3728 6.53075C67.9546 6.71447 68.5031 6.92324 69.0184 7.15707C69.5503 7.37419 70.0655 7.57461 70.5642 7.75833C71.0629 7.94205 71.5781 8.03391 72.11 8.03391C72.7417 8.03391 73.2819 7.89194 73.7307 7.60801C74.1795 7.32408 74.6449 6.86479 75.1269 6.23012L76.947 7.83348C76.4151 8.86899 75.7419 9.62057 74.9274 10.0882C74.1296 10.5559 73.2819 10.7897 72.3843 10.7897C71.6862 10.7897 71.0379 10.6978 70.4395 10.5141C69.8411 10.3137 69.2677 10.1049 68.7192 9.88779C68.1873 9.65397 67.6554 9.4452 67.1235 9.26148C66.6082 9.06106 66.068 8.96085 65.5028 8.96085C64.9044 8.96085 64.3725 9.08611 63.9071 9.33664C63.4417 9.57046 62.9347 10.0381 62.3862 10.7396L60.6409 9.23643ZM60.6409 15.1488C61.3058 14.0799 62.0289 13.3116 62.8101 12.844C63.6079 12.3763 64.5138 12.1425 65.5278 12.1425C66.1926 12.1425 66.8076 12.2427 67.3728 12.4432C67.9546 12.6269 68.5031 12.8356 69.0184 13.0695C69.5503 13.2866 70.0655 13.487 70.5642 13.6707C71.0629 13.8544 71.5781 13.9463 72.11 13.9463C72.7417 13.9463 73.2819 13.8043 73.7307 13.5204C74.1795 13.2365 74.6449 12.7772 75.1269 12.1425L76.947 13.7459C76.4151 14.7814 75.7419 15.533 74.9274 16.0006C74.1296 16.4683 73.2819 16.7021 72.3843 16.7021C71.6862 16.7021 71.0379 16.6102 70.4395 16.4265C69.8411 16.2261 69.2677 16.0173 68.7192 15.8002C68.1873 15.5664 67.6554 15.3576 67.1235 15.1739C66.6082 14.9735 66.068 14.8732 65.5028 14.8732C64.9044 14.8732 64.3725 14.9985 63.9071 15.249C63.4417 15.4829 62.9347 15.9505 62.3862 16.652L60.6409 15.1488Z" fill="white"/>
<path d="M87.3779 18.5309V8.71032H84.2363V6.10486H87.3779V3.80003C87.3779 2.94824 87.6272 2.27182 88.1259 1.77077C88.6411 1.25302 89.306 0.994141 90.1205 0.994141H93.3618V3.59961H91.2175C90.7521 3.59961 90.5194 3.85013 90.5194 4.35118V6.10486H93.7607V8.71032H90.5194V18.5309H87.3779ZM95.506 18.5309V0.994141H98.6475V18.5309H95.506Z" fill="white"/>
<path d="M108.018 18.8817C106.788 18.8817 105.683 18.6311 104.702 18.1301C103.721 17.629 102.948 16.9025 102.383 15.9505C101.818 14.9985 101.535 13.8544 101.535 12.5183V12.1175C101.535 10.7813 101.818 9.63727 102.383 8.68527C102.948 7.73327 103.721 7.00675 104.702 6.5057C105.683 6.00465 106.788 5.75412 108.018 5.75412C109.248 5.75412 110.353 6.00465 111.334 6.5057C112.315 7.00675 113.088 7.73327 113.653 8.68527C114.218 9.63727 114.501 10.7813 114.501 12.1175V12.5183C114.501 13.8544 114.218 14.9985 113.653 15.9505C113.088 16.9025 112.315 17.629 111.334 18.1301C110.353 18.6311 109.248 18.8817 108.018 18.8817ZM108.018 16.0758C108.982 16.0758 109.78 15.7668 110.412 15.1488C111.043 14.5142 111.359 13.6123 111.359 12.4432V12.1926C111.359 11.0235 111.043 10.13 110.412 9.512C109.797 8.87734 108.999 8.56001 108.018 8.56001C107.054 8.56001 106.256 8.87734 105.624 9.512C104.993 10.13 104.677 11.0235 104.677 12.1926V12.4432C104.677 13.6123 104.993 14.5142 105.624 15.1488C106.256 15.7668 107.054 16.0758 108.018 16.0758Z" fill="white"/>
<path d="M118.349 18.5309L116.604 6.10486H119.72L120.817 16.4015H121.266L122.862 6.10486H127.898L129.494 16.4015H129.943L131.04 6.10486H134.156L132.411 18.5309H127.2L125.604 8.23433H125.156L123.56 18.5309H118.349Z" fill="white"/>
<path d="M60.6416 9.2358C61.3065 8.16689 62.0295 7.39861 62.8108 6.93096C63.6086 6.46332 64.5145 6.22949 65.5284 6.22949C66.1933 6.22949 66.8083 6.3297 67.3735 6.53012C67.9552 6.71384 68.5038 6.92261 69.019 7.15644C69.5509 7.37356 70.0662 7.57398 70.5649 7.7577C71.0635 7.94142 71.5788 8.03328 72.1107 8.03328C72.7423 8.03328 73.2826 7.89131 73.7313 7.60738C74.1801 7.32345 74.6455 6.86416 75.1276 6.22949L76.9477 7.83286C76.4158 8.86836 75.7426 9.61994 74.9281 10.0876C74.1303 10.5552 73.2826 10.7891 72.385 10.7891C71.6868 10.7891 71.0386 10.6972 70.4402 10.5135C69.8418 10.3131 69.2684 10.1043 68.7198 9.88716C68.1879 9.65334 67.656 9.44457 67.1241 9.26085C66.6089 9.06043 66.0687 8.96022 65.5035 8.96022C64.9051 8.96022 64.3732 9.08548 63.9078 9.33601C63.4424 9.56983 62.9354 10.0375 62.3869 10.739L60.6416 9.2358ZM60.6416 15.1482C61.3065 14.0793 62.0295 13.311 62.8108 12.8434C63.6086 12.3757 64.5145 12.1419 65.5284 12.1419C66.1933 12.1419 66.8083 12.2421 67.3735 12.4425C67.9552 12.6262 68.5038 12.835 69.019 13.0688C69.5509 13.286 70.0662 13.4864 70.5649 13.6701C71.0635 13.8538 71.5788 13.9457 72.1107 13.9457C72.7423 13.9457 73.2826 13.8037 73.7313 13.5198C74.1801 13.2359 74.6455 12.7766 75.1276 12.1419L76.9477 13.7453C76.4158 14.7808 75.7426 15.5323 74.9281 16C74.1303 16.4676 73.2826 16.7015 72.385 16.7015C71.6868 16.7015 71.0386 16.6096 70.4402 16.4259C69.8418 16.2255 69.2684 16.0167 68.7198 15.7996C68.1879 15.5657 67.656 15.357 67.1241 15.1732C66.6089 14.9728 66.0687 14.8726 65.5035 14.8726C64.9051 14.8726 64.3732 14.9979 63.9078 15.2484C63.4424 15.4822 62.9354 15.9499 62.3869 16.6513L60.6416 15.1482Z" fill="#145AFF"/>
</g>
<path fill-rule="evenodd" clip-rule="evenodd" d="M159 11.4279C159 16.6419 154.774 20.8686 149.56 20.8686C144.346 20.8686 140.119 16.6419 140.119 11.4279C140.119 6.21402 144.346 1.9873 149.56 1.9873C154.774 1.9873 159 6.21402 159 11.4279ZM148.298 5.96231H150.821V10.1668H155.025V12.6894H150.821V16.8936H148.298V12.6894H144.094V10.1668H148.298V5.96231Z" fill="#145AFF"/>
<defs>
<clipPath id="clip0_1404_32">
<rect width="134.156" height="23.85" fill="white"/>
</clipPath>
</defs>
</svg>
